<svg width="48" height="20" viewBox="0 0 48 20" fill="none" xmlns="http://www.w3.org/2000/svg">
<g clip-path="url(#clip0_2_138)">
<path d="M6.76678 7.15687C7.6353 5.91181 8.17743 4.48313 8.39492 2.86573C8.41564 2.71165 8.52375 2.58354 8.67215 2.53721C10.1678 2.07028 11.0182 2.81227 11.0041 4.50417C11.0014 4.83258 10.9864 5.12449 10.9544 5.57095C10.883 6.56819 10.8886 6.84033 10.9993 7.02346C11.1057 7.19949 11.4511 7.25958 12.268 7.10313C12.5257 7.05376 12.7843 6.9978 13.0707 6.93059C13.1972 6.90092 14.1078 6.67677 14.3406 6.62607C14.7846 6.52935 15.1032 6.48842 15.3834 6.50575C16.1423 6.55271 16.5451 7.04566 16.6147 7.99008C16.7372 9.65329 16.3585 12.9941 15.9807 14.2246C15.5947 15.482 14.9214 15.9567 13.3053 15.9853C12.2663 16.0038 10.6682 16.0038 8.50366 15.9853C7.9511 15.9723 7.45035 15.8644 7.00493 15.6626C7.12996 15.4014 7.19998 15.1089 7.19998 14.8V8.40002C7.19998 7.9302 7.03798 7.49821 6.76678 7.15687Z" fill="#959EAD"/>
<path d="M4.40001 7.19995C3.73727 7.19995 3.20001 7.73721 3.20001 8.39995V14.8C3.20001 15.4627 3.73727 16 4.40001 16H5.20001C5.86275 16 6.40001 15.4627 6.40001 14.8V8.39995C6.40001 7.73721 5.86275 7.19995 5.20001 7.19995H4.40001Z" fill="#959EAD"/>
<path d="M27.8877 15H26.7803V7.87695C26.7803 7.28451 26.7985 6.72396 26.835 6.19531C26.7393 6.29102 26.6322 6.39128 26.5137 6.49609C26.3952 6.60091 25.8529 7.04525 24.8867 7.8291L24.2852 7.0498L26.9307 5.00586H27.8877V15ZM38.2646 15H31.6953V14.0225L34.3271 11.377C35.1292 10.5658 35.6579 9.98698 35.9131 9.64062C36.1683 9.29427 36.3597 8.95703 36.4873 8.62891C36.6149 8.30078 36.6787 7.94759 36.6787 7.56934C36.6787 7.03613 36.5169 6.61458 36.1934 6.30469C35.8698 5.99023 35.4209 5.83301 34.8467 5.83301C34.432 5.83301 34.0378 5.90137 33.6641 6.03809C33.2949 6.1748 32.8825 6.42318 32.4268 6.7832L31.8252 6.01074C32.7458 5.24512 33.7484 4.8623 34.833 4.8623C35.7718 4.8623 36.5078 5.10384 37.041 5.58691C37.5742 6.06543 37.8408 6.71029 37.8408 7.52148C37.8408 8.15495 37.6631 8.78158 37.3076 9.40137C36.9521 10.0212 36.2868 10.805 35.3115 11.7529L33.124 13.8926V13.9473H38.2646V15ZM45.9004 7.35742C45.9004 7.99544 45.7204 8.51725 45.3604 8.92285C45.0049 9.32845 44.499 9.59961 43.8428 9.73633V9.79102C44.6449 9.89128 45.2396 10.1465 45.627 10.5566C46.0143 10.9668 46.208 11.5046 46.208 12.1699C46.208 13.1224 45.8776 13.8561 45.2168 14.3711C44.556 14.8815 43.6172 15.1367 42.4004 15.1367C41.8717 15.1367 41.3864 15.0957 40.9443 15.0137C40.5068 14.9362 40.0807 14.7972 39.666 14.5967V13.5166C40.099 13.7308 40.5592 13.8949 41.0469 14.0088C41.5391 14.1182 42.0039 14.1729 42.4414 14.1729C44.1686 14.1729 45.0322 13.4961 45.0322 12.1426C45.0322 10.9303 44.0798 10.3242 42.1748 10.3242H41.1904V9.34668H42.1885C42.9678 9.34668 43.5853 9.17578 44.041 8.83398C44.4967 8.48763 44.7246 8.00911 44.7246 7.39844C44.7246 6.91081 44.556 6.52799 44.2188 6.25C43.8861 5.97201 43.4326 5.83301 42.8584 5.83301C42.4209 5.83301 42.0085 5.89225 41.6211 6.01074C41.2337 6.12923 40.7917 6.34798 40.2949 6.66699L39.7207 5.90137C40.1309 5.5778 40.6025 5.32487 41.1357 5.14258C41.6735 4.95573 42.2386 4.8623 42.8311 4.8623C43.8018 4.8623 44.556 5.08561 45.0938 5.53223C45.6315 5.97428 45.9004 6.58268 45.9004 7.35742Z" fill="#959EAD"/>
</g>
<defs>
<clipPath id="clip0_2_138">
<rect width="48" height="20" fill="white"/>
</clipPath>
</defs>
</svg>
