<svg width="47" height="20" viewBox="0 0 47 20" fill="none" xmlns="http://www.w3.org/2000/svg">
<g clip-path="url(#clip0_2_147)">
<path d="M30.2529 15H23.6836V14.0225L26.3154 11.377C27.1175 10.5658 27.6462 9.98698 27.9014 9.64062C28.1566 9.29427 28.348 8.95703 28.4756 8.62891C28.6032 8.30078 28.667 7.94759 28.667 7.56934C28.667 7.03613 28.5052 6.61458 28.1816 6.30469C27.8581 5.99023 27.4092 5.83301 26.835 5.83301C26.4202 5.83301 26.026 5.90137 25.6523 6.03809C25.2832 6.1748 24.8708 6.42318 24.415 6.7832L23.8135 6.01074C24.734 5.24512 25.7367 4.8623 26.8213 4.8623C27.7601 4.8623 28.4961 5.10384 29.0293 5.58691C29.5625 6.06543 29.8291 6.71029 29.8291 7.52148C29.8291 8.15495 29.6514 8.78158 29.2959 9.40137C28.9404 10.0212 28.2751 10.805 27.2998 11.7529L25.1123 13.8926V13.9473H30.2529V15ZM35.8994 15H34.792V7.87695C34.792 7.28451 34.8102 6.72396 34.8467 6.19531C34.751 6.29102 34.6439 6.39128 34.5254 6.49609C34.4069 6.60091 33.8646 7.04525 32.8984 7.8291L32.2969 7.0498L34.9424 5.00586H35.8994V15ZM41.3477 11.165C41.5436 10.887 41.8421 10.5225 42.2432 10.0713L44.6631 7.50781H46.0098L42.9746 10.7002L46.2217 15H44.8477L42.2021 11.459L41.3477 12.1973V15H40.2266V4.36328H41.3477V10.0029C41.3477 10.2536 41.3294 10.641 41.293 11.165H41.3477Z" fill="#959EAD"/>
<path d="M7.20001 12.3169L7.87782 11.9733H10C11.9882 11.9733 13.6 10.3615 13.6 8.37327V7.19995H14.8C16.3464 7.19995 17.6 8.45355 17.6 9.99995V13.1922C17.6 14.1491 16.9215 14.9476 16.0194 15.1327L16.0204 16.4011C16.0207 16.6997 15.7056 16.8933 15.4394 16.7582L12.317 15.1733H10C8.45361 15.1733 7.20001 13.9197 7.20001 12.3733L7.20001 12.3169Z" fill="#959EAD"/>
<path d="M3.97957 12.4011L3.98083 10.8946C3.02848 10.4341 2.39999 9.46317 2.39999 8.37327V5.99995C2.39999 4.45355 3.6536 3.19995 5.19999 3.19995H9.99999C11.5464 3.19995 12.8 4.45355 12.8 5.99995V8.37327C12.8 9.91966 11.5464 11.1733 9.99999 11.1733H7.68658L4.56045 12.7582C4.29424 12.8932 3.97932 12.6996 3.97957 12.4011Z" fill="#959EAD"/>
</g>
<defs>
<clipPath id="clip0_2_147">
<rect width="47" height="20" fill="white"/>
</clipPath>
</defs>
</svg>
