<svg width="56" height="56" viewBox="0 0 56 56" fill="none" xmlns="http://www.w3.org/2000/svg">
<rect x="1" y="1" width="54" height="54" rx="27" stroke="#959EAD" stroke-width="2"/>
<path d="M29.0312 34.9375C29.3438 34.625 29.3125 34.1562 29.0312 33.8438L25.25 30.25H34.25C34.6562 30.25 35 29.9375 35 29.5V28.5C35 28.0938 34.6562 27.75 34.25 27.75H25.25L29.0312 24.1875C29.3125 23.875 29.3438 23.4062 29.0312 23.0938L28.3438 22.4062C28.0625 22.125 27.5625 22.125 27.2812 22.4062L21.2188 28.5C20.9062 28.7812 20.9062 29.25 21.2188 29.5312L27.2812 35.625C27.5625 35.9062 28.0312 35.9062 28.3438 35.625L29.0312 34.9375Z" fill="#959EAD"/>
</svg>
