<svg width="1140" height="100" viewBox="0 0 1140 100" fill="none" xmlns="http://www.w3.org/2000/svg">
<g clip-path="url(#clip0_2_403)">
<path fill-rule="evenodd" clip-rule="evenodd" d="M21.0365 36.9688V57.4531C21.0365 57.724 21.1273 57.9505 21.3088 58.1328C21.4903 58.3151 21.7159 58.4062 21.9856 58.4062H25.471C25.7407 58.4062 25.9663 58.3151 26.1478 58.1328C26.3293 57.9505 26.4201 57.724 26.4201 57.4531V48.056C27.9035 46.5664 29.2934 45.2344 30.5901 45.2344C32.5713 45.2344 33.5619 45.9948 33.5619 48.4844V57.4531C33.5619 57.724 33.6527 57.9505 33.8342 58.1328C34.0158 58.3151 34.2414 58.4062 34.5111 58.4062H37.9809C38.2609 58.4062 38.4917 58.3151 38.6732 58.1328C38.8548 57.9505 38.9455 57.724 38.9455 57.4531V48.4844C38.9455 45.9427 38.3128 44.0547 37.0473 42.8203C35.7818 41.5859 34.1402 40.9688 32.1227 40.9688C30.1051 40.9688 28.2043 41.724 26.4201 43.2344V36.9688C26.4201 36.6875 26.3293 36.4557 26.1478 36.2734C25.9663 36.0911 25.7407 36 25.471 36H21.9856C21.7159 36 21.4903 36.0911 21.3088 36.2734C21.1273 36.4557 21.0365 36.6875 21.0365 36.9688ZM2.39617 56.4375C0.798715 54.9167 0 52.7266 0 49.8672C0 47.0078 0.803902 44.8099 2.41173 43.2734C4.01956 41.737 6.24974 40.9688 9.10233 40.9688C11.9549 40.9688 14.1799 41.7161 15.7774 43.2109C17.3748 44.7057 18.1735 46.8489 18.1735 49.6406V50.5312C18.1735 50.8125 18.0828 51.0443 17.9013 51.2266C17.7197 51.4089 17.4889 51.5 17.2089 51.5H5.49252C5.59625 52.7813 5.9619 53.7135 6.58947 54.2969C7.21704 54.8802 8.22062 55.1719 9.60024 55.1719C10.9799 55.1719 11.9238 54.8594 12.4321 54.2344C12.9404 53.6094 13.9142 53.705 15.4164 53.9157C16.9186 54.1263 17.2575 54.9209 17.2089 55.1719C16.7323 57.6328 14.2357 58.7282 9.08677 58.7188C6.2238 58.7188 3.99362 57.9583 2.39617 56.4375ZM5.4614 48.2031H12.6966C12.5929 45.7448 11.3922 44.5156 9.09455 44.5156C6.79692 44.5156 5.58588 45.7448 5.4614 48.2031ZM45.7762 60.0312L47.8145 60.2969C49.0526 60.2969 49.9748 59.5243 50.581 57.9793C50.592 57.9514 50.5033 57.937 50.3389 57.9102C49.7121 57.8082 47.9841 57.5271 46.4764 55.6383C44.7481 53.4732 44.4913 52.6374 43.8218 50.4584L43.8213 50.457C43.7537 50.2368 43.6818 50.003 43.6038 49.7527L41.2854 42.2058C41.2543 42.1225 41.2387 42.0261 41.2387 41.9167C41.2387 41.8074 41.3036 41.6746 41.4332 41.5183C41.5629 41.3621 41.7574 41.2787 42.0167 41.2683L45.076 41.2812C45.3768 41.2812 45.6647 41.3828 45.9396 41.5859C46.2144 41.7891 46.3934 42.0417 46.4764 42.3438L48.5147 48.9688C49.0229 50.5938 49.539 51.7187 50.0628 52.3438C50.5867 52.9688 51.2065 53.2812 51.9222 53.2812L55.0186 42.3438C55.1015 42.0417 55.2649 41.7891 55.5087 41.5859C55.7524 41.3828 56.0247 41.2812 56.3256 41.2812H59.6086C59.8679 41.2812 60.0598 41.3646 60.1843 41.5312C60.3088 41.6979 60.371 41.8359 60.371 41.9453C60.371 42.0547 60.3607 42.1458 60.3399 42.2188L56.2633 56.8125C55.5372 59.3958 54.6373 61.2396 53.5637 62.3438C52.4901 63.4479 51.1079 64 49.4171 64L48.7672 63.9967C47.4163 63.9822 46.4375 63.9208 45.8306 63.8125C45.1305 63.6875 44.6922 63.5339 44.5159 63.3516C44.3395 63.1693 44.2513 62.9583 44.2513 62.7188V61C44.2513 60.7187 44.3395 60.487 44.5159 60.3047C44.6922 60.1224 44.9204 60.0312 45.2005 60.0312H45.7762ZM62.1448 57.2812C60.7756 56.3229 60.091 54.9688 60.091 53.2188C60.091 51.4688 60.7782 50.125 62.1526 49.1875C63.527 48.25 65.2982 47.7812 67.4662 47.7812H72.6164C72.6164 46.5625 72.3623 45.7135 71.854 45.2344C71.3457 44.7552 70.4562 44.5156 69.1855 44.5156C67.9995 44.5156 67.1434 44.7901 66.617 45.3391L66.5093 45.4609C65.9958 46.0911 64.3795 45.8769 62.9365 45.5989C61.4935 45.3209 61.4001 44.5848 61.5289 44.2017C62.2533 42.0464 65.0155 40.9688 69.8157 40.9688C72.2845 40.9688 74.2657 41.5234 75.7594 42.6328C77.2532 43.7422 78 45.4583 78 47.7812V57.4531C78 57.7344 77.9118 57.9635 77.7355 58.1406C77.5591 58.3177 77.3309 58.4062 77.0509 58.4062H74.0479C73.7678 58.4062 73.5396 58.3151 73.3633 58.1328C73.1869 57.9505 73.0987 57.724 73.0987 57.4531V56.9688C71.4598 58.1458 69.5693 58.7318 67.4273 58.7266C65.2852 58.7214 63.5244 58.2396 62.1448 57.2812ZM67.8396 51.3281H72.6164V53.7656C71.133 54.7031 69.5927 55.1719 67.9952 55.1719C67.1965 55.1719 66.5793 54.9896 66.1436 54.625C65.708 54.2604 65.4901 53.7969 65.4901 53.2344C65.4901 52.6719 65.7002 52.2135 66.1203 51.8594C66.5404 51.5052 67.1135 51.3281 67.8396 51.3281Z" fill="url(#paint0_linear_2_403)"/>
<path fill-rule="evenodd" clip-rule="evenodd" d="M86 50C88.2091 50 90 48.2091 90 46C90 43.7909 88.2091 42 86 42C83.7909 42 82 43.7909 82 46C82 48.2091 83.7909 50 86 50Z" fill="#1576D8"/>
<g clip-path="url(#clip1_2_403)">
<g clip-path="url(#clip2_2_403)">
<path d="M556.867 56H555V50.8438H549.734V56H547.859V44.5781H549.734V49.25H555V44.5781H556.867V56ZM567.359 51.6562C567.359 52.375 567.266 53.013 567.078 53.5703C566.891 54.1276 566.617 54.599 566.258 54.9844C565.898 55.3646 565.466 55.6562 564.961 55.8594C564.456 56.0573 563.885 56.1562 563.25 56.1562C562.656 56.1562 562.112 56.0573 561.617 55.8594C561.122 55.6562 560.693 55.3646 560.328 54.9844C559.969 54.599 559.69 54.1276 559.492 53.5703C559.294 53.013 559.195 52.375 559.195 51.6562C559.195 50.7031 559.359 49.8958 559.688 49.2344C560.021 48.5677 560.495 48.0599 561.109 47.7109C561.724 47.362 562.456 47.1875 563.305 47.1875C564.102 47.1875 564.805 47.362 565.414 47.7109C566.023 48.0599 566.5 48.5677 566.844 49.2344C567.188 49.901 567.359 50.7083 567.359 51.6562ZM561.086 51.6562C561.086 52.2865 561.161 52.8255 561.312 53.2734C561.469 53.7214 561.708 54.0651 562.031 54.3047C562.354 54.5391 562.771 54.6562 563.281 54.6562C563.792 54.6562 564.208 54.5391 564.531 54.3047C564.854 54.0651 565.091 53.7214 565.242 53.2734C565.393 52.8255 565.469 52.2865 565.469 51.6562C565.469 51.026 565.393 50.4922 565.242 50.0547C565.091 49.612 564.854 49.276 564.531 49.0469C564.208 48.8125 563.789 48.6953 563.273 48.6953C562.513 48.6953 561.958 48.9505 561.609 49.4609C561.26 49.9714 561.086 50.7031 561.086 51.6562ZM579.242 47.1875C580.211 47.1875 580.94 47.4375 581.43 47.9375C581.924 48.4375 582.172 49.2396 582.172 50.3438V56H580.336V50.6719C580.336 50.0156 580.208 49.5208 579.953 49.1875C579.698 48.8542 579.31 48.6875 578.789 48.6875C578.06 48.6875 577.534 48.9219 577.211 49.3906C576.893 49.8542 576.734 50.5286 576.734 51.4141V56H574.898V50.6719C574.898 50.2344 574.841 49.8698 574.727 49.5781C574.617 49.2812 574.448 49.0599 574.219 48.9141C573.99 48.763 573.701 48.6875 573.352 48.6875C572.846 48.6875 572.443 48.8021 572.141 49.0312C571.844 49.2604 571.63 49.599 571.5 50.0469C571.37 50.4896 571.305 51.0339 571.305 51.6797V56H569.469V47.3516H570.898L571.156 48.5156H571.258C571.435 48.2135 571.654 47.9661 571.914 47.7734C572.18 47.5755 572.474 47.4297 572.797 47.3359C573.12 47.237 573.456 47.1875 573.805 47.1875C574.451 47.1875 574.995 47.3021 575.438 47.5312C575.88 47.7552 576.211 48.099 576.43 48.5625H576.57C576.841 48.0938 577.219 47.7474 577.703 47.5234C578.188 47.2995 578.701 47.1875 579.242 47.1875ZM588.18 47.1875C588.951 47.1875 589.612 47.3464 590.164 47.6641C590.716 47.9818 591.141 48.4323 591.438 49.0156C591.734 49.599 591.883 50.2969 591.883 51.1094V52.0938H586.109C586.13 52.9323 586.354 53.5781 586.781 54.0312C587.214 54.4844 587.818 54.7109 588.594 54.7109C589.146 54.7109 589.641 54.6589 590.078 54.5547C590.521 54.4453 590.977 54.2865 591.445 54.0781V55.5703C591.013 55.7734 590.573 55.9219 590.125 56.0156C589.677 56.1094 589.141 56.1562 588.516 56.1562C587.667 56.1562 586.919 55.9922 586.273 55.6641C585.633 55.3307 585.13 54.8359 584.766 54.1797C584.406 53.5234 584.227 52.7083 584.227 51.7344C584.227 50.7656 584.391 49.9427 584.719 49.2656C585.047 48.5885 585.508 48.0729 586.102 47.7188C586.695 47.3646 587.388 47.1875 588.18 47.1875ZM588.18 48.5703C587.602 48.5703 587.133 48.7578 586.773 49.1328C586.419 49.5078 586.211 50.0573 586.148 50.7812H590.086C590.081 50.349 590.008 49.9661 589.867 49.6328C589.732 49.2995 589.523 49.0391 589.242 48.8516C588.966 48.6641 588.612 48.5703 588.18 48.5703Z" fill="#183B56"/>
<g clip-path="url(#clip3_2_403)">
<path d="M761.312 44.5781C762.786 44.5781 763.862 44.8802 764.539 45.4844C765.216 46.0885 765.555 46.9349 765.555 48.0234C765.555 48.5182 765.477 48.9896 765.32 49.4375C765.169 49.8802 764.919 50.2734 764.57 50.6172C764.221 50.9557 763.76 51.224 763.188 51.4219C762.62 51.6198 761.919 51.7188 761.086 51.7188H759.867V56H757.992V44.5781H761.312ZM761.188 46.1328H759.867V50.1562H760.891C761.479 50.1562 761.979 50.0885 762.391 49.9531C762.802 49.8125 763.115 49.5911 763.328 49.2891C763.542 48.987 763.648 48.5885 763.648 48.0938C763.648 47.4323 763.448 46.9401 763.047 46.6172C762.651 46.2943 762.031 46.1328 761.188 46.1328ZM771.039 47.1875C772.133 47.1875 772.958 47.4297 773.516 47.9141C774.078 48.3984 774.359 49.1536 774.359 50.1797V56H773.055L772.703 54.7734H772.641C772.396 55.0859 772.143 55.3438 771.883 55.5469C771.622 55.75 771.32 55.901 770.977 56C770.638 56.1042 770.224 56.1562 769.734 56.1562C769.219 56.1562 768.758 56.0625 768.352 55.875C767.945 55.6823 767.625 55.3906 767.391 55C767.156 54.6094 767.039 54.1146 767.039 53.5156C767.039 52.625 767.37 51.9557 768.031 51.5078C768.698 51.0599 769.703 50.8125 771.047 50.7656L772.547 50.7109V50.2578C772.547 49.6589 772.406 49.2318 772.125 48.9766C771.849 48.7214 771.458 48.5938 770.953 48.5938C770.521 48.5938 770.102 48.6562 769.695 48.7812C769.289 48.9062 768.893 49.0599 768.508 49.2422L767.914 47.9453C768.336 47.7214 768.815 47.5391 769.352 47.3984C769.893 47.2578 770.456 47.1875 771.039 47.1875ZM772.539 51.8672L771.422 51.9062C770.505 51.9375 769.862 52.0938 769.492 52.375C769.122 52.6562 768.938 53.0417 768.938 53.5312C768.938 53.9583 769.065 54.2708 769.32 54.4688C769.576 54.6615 769.911 54.7578 770.328 54.7578C770.964 54.7578 771.49 54.5781 771.906 54.2188C772.328 53.8542 772.539 53.3203 772.539 52.6172V51.8672ZM779.398 59.8438C778.227 59.8438 777.328 59.6328 776.703 59.2109C776.078 58.7891 775.766 58.1979 775.766 57.4375C775.766 56.9062 775.932 56.4557 776.266 56.0859C776.599 55.7214 777.076 55.4688 777.695 55.3281C777.461 55.224 777.258 55.0625 777.086 54.8438C776.919 54.6198 776.836 54.3724 776.836 54.1016C776.836 53.7786 776.927 53.5026 777.109 53.2734C777.292 53.0443 777.565 52.8229 777.93 52.6094C777.477 52.4167 777.112 52.1042 776.836 51.6719C776.565 51.2344 776.43 50.7214 776.43 50.1328C776.43 49.5078 776.562 48.9766 776.828 48.5391C777.094 48.0964 777.482 47.7604 777.992 47.5312C778.503 47.2969 779.12 47.1797 779.844 47.1797C780 47.1797 780.169 47.1901 780.352 47.2109C780.539 47.2266 780.711 47.2474 780.867 47.2734C781.029 47.2943 781.151 47.3177 781.234 47.3438H784.227V48.3672L782.758 48.6406C782.898 48.8385 783.01 49.0651 783.094 49.3203C783.177 49.5703 783.219 49.8438 783.219 50.1406C783.219 51.0365 782.909 51.7422 782.289 52.2578C781.674 52.7682 780.826 53.0234 779.742 53.0234C779.482 53.013 779.229 52.9922 778.984 52.9609C778.797 53.0755 778.654 53.2031 778.555 53.3438C778.456 53.4792 778.406 53.6328 778.406 53.8047C778.406 53.9453 778.456 54.0599 778.555 54.1484C778.654 54.2318 778.799 54.2943 778.992 54.3359C779.19 54.3776 779.43 54.3984 779.711 54.3984H781.203C782.151 54.3984 782.875 54.599 783.375 55C783.875 55.401 784.125 55.9896 784.125 56.7656C784.125 57.75 783.719 58.5078 782.906 59.0391C782.094 59.5755 780.924 59.8438 779.398 59.8438ZM779.469 58.5547C780.109 58.5547 780.648 58.4922 781.086 58.3672C781.523 58.2422 781.854 58.0625 782.078 57.8281C782.302 57.599 782.414 57.3255 782.414 57.0078C782.414 56.7266 782.344 56.5104 782.203 56.3594C782.062 56.2083 781.852 56.1042 781.57 56.0469C781.289 55.9896 780.94 55.9609 780.523 55.9609H779.164C778.826 55.9609 778.526 56.013 778.266 56.1172C778.005 56.2266 777.802 56.3828 777.656 56.5859C777.516 56.7891 777.445 57.0339 777.445 57.3203C777.445 57.7161 777.62 58.0208 777.969 58.2344C778.323 58.4479 778.823 58.5547 779.469 58.5547ZM779.828 51.8203C780.365 51.8203 780.763 51.6745 781.023 51.3828C781.284 51.0859 781.414 50.6693 781.414 50.1328C781.414 49.5495 781.279 49.112 781.008 48.8203C780.742 48.5286 780.346 48.3828 779.82 48.3828C779.305 48.3828 778.911 48.5312 778.641 48.8281C778.375 49.125 778.242 49.5651 778.242 50.1484C778.242 50.6745 778.375 51.0859 778.641 51.3828C778.911 51.6745 779.307 51.8203 779.828 51.8203ZM789.25 47.1875C790.021 47.1875 790.682 47.3464 791.234 47.6641C791.786 47.9818 792.211 48.4323 792.508 49.0156C792.805 49.599 792.953 50.2969 792.953 51.1094V52.0938H787.18C787.201 52.9323 787.424 53.5781 787.852 54.0312C788.284 54.4844 788.888 54.7109 789.664 54.7109C790.216 54.7109 790.711 54.6589 791.148 54.5547C791.591 54.4453 792.047 54.2865 792.516 54.0781V55.5703C792.083 55.7734 791.643 55.9219 791.195 56.0156C790.747 56.1094 790.211 56.1562 789.586 56.1562C788.737 56.1562 787.99 55.9922 787.344 55.6641C786.703 55.3307 786.201 54.8359 785.836 54.1797C785.477 53.5234 785.297 52.7083 785.297 51.7344C785.297 50.7656 785.461 49.9427 785.789 49.2656C786.117 48.5885 786.578 48.0729 787.172 47.7188C787.766 47.3646 788.458 47.1875 789.25 47.1875ZM789.25 48.5703C788.672 48.5703 788.203 48.7578 787.844 49.1328C787.49 49.5078 787.281 50.0573 787.219 50.7812H791.156C791.151 50.349 791.078 49.9661 790.938 49.6328C790.802 49.2995 790.594 49.0391 790.312 48.8516C790.036 48.6641 789.682 48.5703 789.25 48.5703ZM800.836 53.5312C800.836 54.099 800.698 54.5781 800.422 54.9688C800.146 55.3594 799.742 55.6562 799.211 55.8594C798.685 56.0573 798.039 56.1562 797.273 56.1562C796.669 56.1562 796.148 56.112 795.711 56.0234C795.279 55.9401 794.87 55.8099 794.484 55.6328V54.0469C794.896 54.2396 795.357 54.4062 795.867 54.5469C796.383 54.6875 796.87 54.7578 797.328 54.7578C797.932 54.7578 798.367 54.6641 798.633 54.4766C798.898 54.2839 799.031 54.0286 799.031 53.7109C799.031 53.5234 798.977 53.3568 798.867 53.2109C798.763 53.0599 798.565 52.9062 798.273 52.75C797.987 52.5885 797.565 52.3958 797.008 52.1719C796.461 51.9531 796 51.7344 795.625 51.5156C795.25 51.2969 794.966 51.0339 794.773 50.7266C794.581 50.4141 794.484 50.0156 794.484 49.5312C794.484 48.7656 794.786 48.1849 795.391 47.7891C796 47.388 796.805 47.1875 797.805 47.1875C798.336 47.1875 798.836 47.2422 799.305 47.3516C799.779 47.4557 800.242 47.6094 800.695 47.8125L800.117 49.1953C799.727 49.0234 799.333 48.8828 798.938 48.7734C798.547 48.6589 798.148 48.6016 797.742 48.6016C797.268 48.6016 796.906 48.6745 796.656 48.8203C796.411 48.9661 796.289 49.1745 796.289 49.4453C796.289 49.6484 796.349 49.8203 796.469 49.9609C796.589 50.1016 796.794 50.2422 797.086 50.3828C797.383 50.5234 797.794 50.6979 798.32 50.9062C798.836 51.1042 799.281 51.3125 799.656 51.5312C800.036 51.7448 800.328 52.0078 800.531 52.3203C800.734 52.6328 800.836 53.0365 800.836 53.5312Z" fill="#183B56"/>
<path d="M810.035 53.4023C810.281 53.6484 810.691 53.6484 810.938 53.4023L814.656 49.6836C814.93 49.4102 814.93 49 814.656 48.7539L814.055 48.125C813.781 47.8789 813.371 47.8789 813.125 48.125L810.473 50.7773L807.848 48.125C807.602 47.8789 807.191 47.8789 806.918 48.125L806.316 48.7539C806.043 49 806.043 49.4102 806.316 49.6836L810.035 53.4023Z" fill="#183B56"/>
</g>
<g clip-path="url(#clip4_2_403)">
<path d="M634.781 56V44.5781H636.656V54.4062H641.508V56H634.781ZM646.688 47.1875C647.781 47.1875 648.607 47.4297 649.164 47.9141C649.727 48.3984 650.008 49.1536 650.008 50.1797V56H648.703L648.352 54.7734H648.289C648.044 55.0859 647.792 55.3438 647.531 55.5469C647.271 55.75 646.969 55.901 646.625 56C646.286 56.1042 645.872 56.1562 645.383 56.1562C644.867 56.1562 644.406 56.0625 644 55.875C643.594 55.6823 643.273 55.3906 643.039 55C642.805 54.6094 642.688 54.1146 642.688 53.5156C642.688 52.625 643.018 51.9557 643.68 51.5078C644.346 51.0599 645.352 50.8125 646.695 50.7656L648.195 50.7109V50.2578C648.195 49.6589 648.055 49.2318 647.773 48.9766C647.497 48.7214 647.107 48.5938 646.602 48.5938C646.169 48.5938 645.75 48.6562 645.344 48.7812C644.938 48.9062 644.542 49.0599 644.156 49.2422L643.562 47.9453C643.984 47.7214 644.464 47.5391 645 47.3984C645.542 47.2578 646.104 47.1875 646.688 47.1875ZM648.188 51.8672L647.07 51.9062C646.154 51.9375 645.51 52.0938 645.141 52.375C644.771 52.6562 644.586 53.0417 644.586 53.5312C644.586 53.9583 644.714 54.2708 644.969 54.4688C645.224 54.6615 645.56 54.7578 645.977 54.7578C646.612 54.7578 647.138 54.5781 647.555 54.2188C647.977 53.8542 648.188 53.3203 648.188 52.6172V51.8672ZM657.086 47.1875C658.06 47.1875 658.818 47.4401 659.359 47.9453C659.906 48.4453 660.18 49.25 660.18 50.3594V56H658.344V50.7031C658.344 50.0312 658.206 49.5286 657.93 49.1953C657.654 48.8568 657.227 48.6875 656.648 48.6875C655.81 48.6875 655.227 48.9453 654.898 49.4609C654.576 49.9766 654.414 50.724 654.414 51.7031V56H652.578V47.3516H654.008L654.266 48.5234H654.367C654.555 48.2214 654.786 47.974 655.062 47.7812C655.344 47.5833 655.656 47.4349 656 47.3359C656.349 47.237 656.711 47.1875 657.086 47.1875ZM665.656 56.1562C664.625 56.1562 663.797 55.7812 663.172 55.0312C662.552 54.276 662.242 53.1641 662.242 51.6953C662.242 50.2109 662.557 49.0885 663.188 48.3281C663.823 47.5677 664.659 47.1875 665.695 47.1875C666.133 47.1875 666.516 47.2474 666.844 47.3672C667.172 47.4818 667.453 47.638 667.688 47.8359C667.927 48.0339 668.13 48.2552 668.297 48.5H668.383C668.357 48.3385 668.326 48.1068 668.289 47.8047C668.258 47.4974 668.242 47.2135 668.242 46.9531V43.8438H670.086V56H668.648L668.32 54.8203H668.242C668.086 55.0703 667.888 55.2969 667.648 55.5C667.414 55.6979 667.133 55.8568 666.805 55.9766C666.482 56.0964 666.099 56.1562 665.656 56.1562ZM666.172 54.6641C666.958 54.6641 667.513 54.4375 667.836 53.9844C668.159 53.5312 668.326 52.8516 668.336 51.9453V51.7031C668.336 50.7344 668.18 49.9922 667.867 49.4766C667.555 48.9557 666.984 48.6953 666.156 48.6953C665.495 48.6953 664.99 48.9635 664.641 49.5C664.297 50.0312 664.125 50.7734 664.125 51.7266C664.125 52.6797 664.297 53.4089 664.641 53.9141C664.99 54.4141 665.5 54.6641 666.172 54.6641ZM674.555 47.3516V56H672.719V47.3516H674.555ZM673.648 44.0391C673.93 44.0391 674.172 44.1146 674.375 44.2656C674.583 44.4167 674.688 44.6771 674.688 45.0469C674.688 45.4115 674.583 45.6719 674.375 45.8281C674.172 45.9792 673.93 46.0547 673.648 46.0547C673.357 46.0547 673.109 45.9792 672.906 45.8281C672.708 45.6719 672.609 45.4115 672.609 45.0469C672.609 44.6771 672.708 44.4167 672.906 44.2656C673.109 44.1146 673.357 44.0391 673.648 44.0391ZM681.695 47.1875C682.669 47.1875 683.427 47.4401 683.969 47.9453C684.516 48.4453 684.789 49.25 684.789 50.3594V56H682.953V50.7031C682.953 50.0312 682.815 49.5286 682.539 49.1953C682.263 48.8568 681.836 48.6875 681.258 48.6875C680.419 48.6875 679.836 48.9453 679.508 49.4609C679.185 49.9766 679.023 50.724 679.023 51.7031V56H677.188V47.3516H678.617L678.875 48.5234H678.977C679.164 48.2214 679.396 47.974 679.672 47.7812C679.953 47.5833 680.266 47.4349 680.609 47.3359C680.958 47.237 681.32 47.1875 681.695 47.1875ZM689.828 59.8438C688.656 59.8438 687.758 59.6328 687.133 59.2109C686.508 58.7891 686.195 58.1979 686.195 57.4375C686.195 56.9062 686.362 56.4557 686.695 56.0859C687.029 55.7214 687.505 55.4688 688.125 55.3281C687.891 55.224 687.688 55.0625 687.516 54.8438C687.349 54.6198 687.266 54.3724 687.266 54.1016C687.266 53.7786 687.357 53.5026 687.539 53.2734C687.721 53.0443 687.995 52.8229 688.359 52.6094C687.906 52.4167 687.542 52.1042 687.266 51.6719C686.995 51.2344 686.859 50.7214 686.859 50.1328C686.859 49.5078 686.992 48.9766 687.258 48.5391C687.523 48.0964 687.911 47.7604 688.422 47.5312C688.932 47.2969 689.549 47.1797 690.273 47.1797C690.43 47.1797 690.599 47.1901 690.781 47.2109C690.969 47.2266 691.141 47.2474 691.297 47.2734C691.458 47.2943 691.581 47.3177 691.664 47.3438H694.656V48.3672L693.188 48.6406C693.328 48.8385 693.44 49.0651 693.523 49.3203C693.607 49.5703 693.648 49.8438 693.648 50.1406C693.648 51.0365 693.339 51.7422 692.719 52.2578C692.104 52.7682 691.255 53.0234 690.172 53.0234C689.911 53.013 689.659 52.9922 689.414 52.9609C689.227 53.0755 689.083 53.2031 688.984 53.3438C688.885 53.4792 688.836 53.6328 688.836 53.8047C688.836 53.9453 688.885 54.0599 688.984 54.1484C689.083 54.2318 689.229 54.2943 689.422 54.3359C689.62 54.3776 689.859 54.3984 690.141 54.3984H691.633C692.581 54.3984 693.305 54.599 693.805 55C694.305 55.401 694.555 55.9896 694.555 56.7656C694.555 57.75 694.148 58.5078 693.336 59.0391C692.523 59.5755 691.354 59.8438 689.828 59.8438ZM689.898 58.5547C690.539 58.5547 691.078 58.4922 691.516 58.3672C691.953 58.2422 692.284 58.0625 692.508 57.8281C692.732 57.599 692.844 57.3255 692.844 57.0078C692.844 56.7266 692.773 56.5104 692.633 56.3594C692.492 56.2083 692.281 56.1042 692 56.0469C691.719 55.9896 691.37 55.9609 690.953 55.9609H689.594C689.255 55.9609 688.956 56.013 688.695 56.1172C688.435 56.2266 688.232 56.3828 688.086 56.5859C687.945 56.7891 687.875 57.0339 687.875 57.3203C687.875 57.7161 688.049 58.0208 688.398 58.2344C688.753 58.4479 689.253 58.5547 689.898 58.5547ZM690.258 51.8203C690.794 51.8203 691.193 51.6745 691.453 51.3828C691.714 51.0859 691.844 50.6693 691.844 50.1328C691.844 49.5495 691.708 49.112 691.438 48.8203C691.172 48.5286 690.776 48.3828 690.25 48.3828C689.734 48.3828 689.341 48.5312 689.07 48.8281C688.805 49.125 688.672 49.5651 688.672 50.1484C688.672 50.6745 688.805 51.0859 689.07 51.3828C689.341 51.6745 689.737 51.8203 690.258 51.8203ZM702.047 53.5312C702.047 54.099 701.909 54.5781 701.633 54.9688C701.357 55.3594 700.953 55.6562 700.422 55.8594C699.896 56.0573 699.25 56.1562 698.484 56.1562C697.88 56.1562 697.359 56.112 696.922 56.0234C696.49 55.9401 696.081 55.8099 695.695 55.6328V54.0469C696.107 54.2396 696.568 54.4062 697.078 54.5469C697.594 54.6875 698.081 54.7578 698.539 54.7578C699.143 54.7578 699.578 54.6641 699.844 54.4766C700.109 54.2839 700.242 54.0286 700.242 53.7109C700.242 53.5234 700.188 53.3568 700.078 53.2109C699.974 53.0599 699.776 52.9062 699.484 52.75C699.198 52.5885 698.776 52.3958 698.219 52.1719C697.672 51.9531 697.211 51.7344 696.836 51.5156C696.461 51.2969 696.177 51.0339 695.984 50.7266C695.792 50.4141 695.695 50.0156 695.695 49.5312C695.695 48.7656 695.997 48.1849 696.602 47.7891C697.211 47.388 698.016 47.1875 699.016 47.1875C699.547 47.1875 700.047 47.2422 700.516 47.3516C700.99 47.4557 701.453 47.6094 701.906 47.8125L701.328 49.1953C700.938 49.0234 700.544 48.8828 700.148 48.7734C699.758 48.6589 699.359 48.6016 698.953 48.6016C698.479 48.6016 698.117 48.6745 697.867 48.8203C697.622 48.9661 697.5 49.1745 697.5 49.4453C697.5 49.6484 697.56 49.8203 697.68 49.9609C697.799 50.1016 698.005 50.2422 698.297 50.3828C698.594 50.5234 699.005 50.6979 699.531 50.9062C700.047 51.1042 700.492 51.3125 700.867 51.5312C701.247 51.7448 701.539 52.0078 701.742 52.3203C701.945 52.6328 702.047 53.0365 702.047 53.5312Z" fill="#183B56"/>
<path d="M711.035 53.4023C711.281 53.6484 711.691 53.6484 711.938 53.4023L715.656 49.6836C715.93 49.4102 715.93 49 715.656 48.7539L715.055 48.125C714.781 47.8789 714.371 47.8789 714.125 48.125L711.473 50.7773L708.848 48.125C708.602 47.8789 708.191 47.8789 707.918 48.125L707.316 48.7539C707.043 49 707.043 49.4102 707.316 49.6836L711.035 53.4023Z" fill="#183B56"/>
</g>
<path d="M866.148 50.1797C866.148 51.4661 865.909 52.5417 865.43 53.4062C864.951 54.2656 864.255 54.9141 863.344 55.3516C862.432 55.7839 861.333 56 860.047 56H856.875V44.5781H860.391C861.573 44.5781 862.594 44.7917 863.453 45.2188C864.312 45.6406 864.977 46.2682 865.445 47.1016C865.914 47.9297 866.148 48.9557 866.148 50.1797ZM864.195 50.2344C864.195 49.2969 864.047 48.526 863.75 47.9219C863.458 47.3177 863.026 46.8698 862.453 46.5781C861.885 46.2812 861.185 46.1328 860.352 46.1328H858.75V54.4297H860.078C861.458 54.4297 862.49 54.0781 863.172 53.375C863.854 52.6719 864.195 51.625 864.195 50.2344ZM876.078 51.6562C876.078 52.375 875.984 53.013 875.797 53.5703C875.609 54.1276 875.336 54.599 874.977 54.9844C874.617 55.3646 874.185 55.6562 873.68 55.8594C873.174 56.0573 872.604 56.1562 871.969 56.1562C871.375 56.1562 870.831 56.0573 870.336 55.8594C869.841 55.6562 869.411 55.3646 869.047 54.9844C868.688 54.599 868.409 54.1276 868.211 53.5703C868.013 53.013 867.914 52.375 867.914 51.6562C867.914 50.7031 868.078 49.8958 868.406 49.2344C868.74 48.5677 869.214 48.0599 869.828 47.7109C870.443 47.362 871.174 47.1875 872.023 47.1875C872.82 47.1875 873.523 47.362 874.133 47.7109C874.742 48.0599 875.219 48.5677 875.562 49.2344C875.906 49.901 876.078 50.7083 876.078 51.6562ZM869.805 51.6562C869.805 52.2865 869.88 52.8255 870.031 53.2734C870.188 53.7214 870.427 54.0651 870.75 54.3047C871.073 54.5391 871.49 54.6562 872 54.6562C872.51 54.6562 872.927 54.5391 873.25 54.3047C873.573 54.0651 873.81 53.7214 873.961 53.2734C874.112 52.8255 874.188 52.2865 874.188 51.6562C874.188 51.026 874.112 50.4922 873.961 50.0547C873.81 49.612 873.573 49.276 873.25 49.0469C872.927 48.8125 872.508 48.6953 871.992 48.6953C871.232 48.6953 870.677 48.9505 870.328 49.4609C869.979 49.9714 869.805 50.7031 869.805 51.6562ZM881.672 56.1562C880.854 56.1562 880.146 55.9974 879.547 55.6797C878.948 55.362 878.487 54.875 878.164 54.2188C877.841 53.5625 877.68 52.7292 877.68 51.7188C877.68 50.6667 877.857 49.8073 878.211 49.1406C878.565 48.474 879.055 47.9818 879.68 47.6641C880.31 47.3464 881.031 47.1875 881.844 47.1875C882.359 47.1875 882.826 47.2396 883.242 47.3438C883.664 47.4427 884.021 47.5651 884.312 47.7109L883.766 49.1797C883.448 49.0495 883.122 48.9401 882.789 48.8516C882.456 48.763 882.135 48.7188 881.828 48.7188C881.323 48.7188 880.901 48.8307 880.562 49.0547C880.229 49.2786 879.979 49.612 879.812 50.0547C879.651 50.4974 879.57 51.0469 879.57 51.7031C879.57 52.3385 879.654 52.875 879.82 53.3125C879.987 53.7448 880.234 54.0729 880.562 54.2969C880.891 54.5156 881.294 54.625 881.773 54.625C882.247 54.625 882.672 54.5677 883.047 54.4531C883.422 54.3385 883.776 54.1901 884.109 54.0078V55.6016C883.781 55.7891 883.43 55.9271 883.055 56.0156C882.68 56.1094 882.219 56.1562 881.672 56.1562ZM891.953 53.5312C891.953 54.099 891.815 54.5781 891.539 54.9688C891.263 55.3594 890.859 55.6562 890.328 55.8594C889.802 56.0573 889.156 56.1562 888.391 56.1562C887.786 56.1562 887.266 56.112 886.828 56.0234C886.396 55.9401 885.987 55.8099 885.602 55.6328V54.0469C886.013 54.2396 886.474 54.4062 886.984 54.5469C887.5 54.6875 887.987 54.7578 888.445 54.7578C889.049 54.7578 889.484 54.6641 889.75 54.4766C890.016 54.2839 890.148 54.0286 890.148 53.7109C890.148 53.5234 890.094 53.3568 889.984 53.2109C889.88 53.0599 889.682 52.9062 889.391 52.75C889.104 52.5885 888.682 52.3958 888.125 52.1719C887.578 51.9531 887.117 51.7344 886.742 51.5156C886.367 51.2969 886.083 51.0339 885.891 50.7266C885.698 50.4141 885.602 50.0156 885.602 49.5312C885.602 48.7656 885.904 48.1849 886.508 47.7891C887.117 47.388 887.922 47.1875 888.922 47.1875C889.453 47.1875 889.953 47.2422 890.422 47.3516C890.896 47.4557 891.359 47.6094 891.812 47.8125L891.234 49.1953C890.844 49.0234 890.451 48.8828 890.055 48.7734C889.664 48.6589 889.266 48.6016 888.859 48.6016C888.385 48.6016 888.023 48.6745 887.773 48.8203C887.529 48.9661 887.406 49.1745 887.406 49.4453C887.406 49.6484 887.466 49.8203 887.586 49.9609C887.706 50.1016 887.911 50.2422 888.203 50.3828C888.5 50.5234 888.911 50.6979 889.438 50.9062C889.953 51.1042 890.398 51.3125 890.773 51.5312C891.154 51.7448 891.445 52.0078 891.648 52.3203C891.852 52.6328 891.953 53.0365 891.953 53.5312Z" fill="#183B56"/>
<path d="M943.664 56H941.797V50.8438H936.531V56H934.656V44.5781H936.531V49.25H941.797V44.5781H943.664V56ZM949.945 47.1875C950.716 47.1875 951.378 47.3464 951.93 47.6641C952.482 47.9818 952.906 48.4323 953.203 49.0156C953.5 49.599 953.648 50.2969 953.648 51.1094V52.0938H947.875C947.896 52.9323 948.12 53.5781 948.547 54.0312C948.979 54.4844 949.583 54.7109 950.359 54.7109C950.911 54.7109 951.406 54.6589 951.844 54.5547C952.286 54.4453 952.742 54.2865 953.211 54.0781V55.5703C952.779 55.7734 952.339 55.9219 951.891 56.0156C951.443 56.1094 950.906 56.1562 950.281 56.1562C949.432 56.1562 948.685 55.9922 948.039 55.6641C947.398 55.3307 946.896 54.8359 946.531 54.1797C946.172 53.5234 945.992 52.7083 945.992 51.7344C945.992 50.7656 946.156 49.9427 946.484 49.2656C946.812 48.5885 947.273 48.0729 947.867 47.7188C948.461 47.3646 949.154 47.1875 949.945 47.1875ZM949.945 48.5703C949.367 48.5703 948.898 48.7578 948.539 49.1328C948.185 49.5078 947.977 50.0573 947.914 50.7812H951.852C951.846 50.349 951.773 49.9661 951.633 49.6328C951.497 49.2995 951.289 49.0391 951.008 48.8516C950.732 48.6641 950.378 48.5703 949.945 48.5703ZM957.562 56H955.719V43.8438H957.562V56ZM964.625 47.1875C965.651 47.1875 966.474 47.5625 967.094 48.3125C967.719 49.0625 968.031 50.1771 968.031 51.6562C968.031 52.6354 967.885 53.4609 967.594 54.1328C967.307 54.7995 966.904 55.3047 966.383 55.6484C965.867 55.987 965.266 56.1562 964.578 56.1562C964.141 56.1562 963.76 56.099 963.438 55.9844C963.115 55.8698 962.839 55.7214 962.609 55.5391C962.38 55.3516 962.188 55.1484 962.031 54.9297H961.922C961.948 55.138 961.971 55.3698 961.992 55.625C962.018 55.875 962.031 56.1042 962.031 56.3125V59.8359H960.188V47.3516H961.688L961.945 48.5469H962.031C962.193 48.3021 962.388 48.0755 962.617 47.8672C962.852 47.6589 963.133 47.4948 963.461 47.375C963.794 47.25 964.182 47.1875 964.625 47.1875ZM964.133 48.6875C963.628 48.6875 963.221 48.7891 962.914 48.9922C962.612 49.1901 962.391 49.4896 962.25 49.8906C962.115 50.2917 962.042 50.7943 962.031 51.3984V51.6562C962.031 52.2969 962.096 52.8411 962.227 53.2891C962.362 53.7318 962.583 54.0703 962.891 54.3047C963.203 54.5339 963.625 54.6484 964.156 54.6484C964.604 54.6484 964.974 54.526 965.266 54.2812C965.562 54.0365 965.784 53.6875 965.93 53.2344C966.076 52.7812 966.148 52.2474 966.148 51.6328C966.148 50.7005 965.982 49.9766 965.648 49.4609C965.32 48.9453 964.815 48.6875 964.133 48.6875Z" fill="#183B56"/>
</g>
<g filter="url(#filter0_d_2_403)">
<rect x="1010" y="27" width="129" height="46" rx="7" stroke="#1565D8" stroke-width="2"/>
<path d="M1039.36 49.5859H1043.89V55.5078C1043.3 55.7057 1042.67 55.8646 1042.03 55.9844C1041.38 56.099 1040.65 56.1562 1039.83 56.1562C1038.7 56.1562 1037.73 55.9323 1036.94 55.4844C1036.15 55.0365 1035.55 54.375 1035.14 53.5C1034.73 52.625 1034.52 51.5495 1034.52 50.2734C1034.52 49.0755 1034.75 48.0391 1035.21 47.1641C1035.67 46.2891 1036.35 45.612 1037.23 45.1328C1038.12 44.6536 1039.21 44.4141 1040.49 44.4141C1041.09 44.4141 1041.69 44.4792 1042.28 44.6094C1042.87 44.7396 1043.4 44.9089 1043.88 45.1172L1043.07 47.0547C1042.73 46.8776 1042.33 46.7292 1041.88 46.6094C1041.43 46.4896 1040.96 46.4297 1040.47 46.4297C1039.77 46.4297 1039.16 46.5911 1038.64 46.9141C1038.12 47.237 1037.72 47.6901 1037.43 48.2734C1037.15 48.8516 1037.01 49.5339 1037.01 50.3203C1037.01 51.0651 1037.11 51.7266 1037.32 52.3047C1037.52 52.8776 1037.84 53.3281 1038.28 53.6562C1038.72 53.9792 1039.29 54.1406 1039.99 54.1406C1040.33 54.1406 1040.62 54.125 1040.86 54.0938C1041.1 54.0573 1041.32 54.0208 1041.53 53.9844V51.6016H1039.36V49.5859ZM1050.04 47.1016C1050.84 47.1016 1051.54 47.2578 1052.12 47.5703C1052.7 47.8776 1053.16 48.3255 1053.47 48.9141C1053.79 49.5026 1053.95 50.2214 1053.95 51.0703V52.2266H1048.32C1048.34 52.8984 1048.54 53.4271 1048.92 53.8125C1049.3 54.1927 1049.82 54.3828 1050.5 54.3828C1051.05 54.3828 1051.56 54.3255 1052.03 54.2109C1052.49 54.0964 1052.97 53.9245 1053.46 53.6953V55.5391C1053.03 55.7526 1052.57 55.9089 1052.1 56.0078C1051.63 56.1068 1051.06 56.1562 1050.39 56.1562C1049.51 56.1562 1048.74 55.9948 1048.06 55.6719C1047.39 55.349 1046.86 54.8568 1046.47 54.1953C1046.09 53.5339 1045.9 52.7005 1045.9 51.6953C1045.9 50.6745 1046.07 49.8255 1046.42 49.1484C1046.77 48.4661 1047.25 47.9557 1047.87 47.6172C1048.49 47.2734 1049.21 47.1016 1050.04 47.1016ZM1050.05 48.7969C1049.59 48.7969 1049.2 48.9453 1048.89 49.2422C1048.59 49.5391 1048.42 50.0052 1048.37 50.6406H1051.72C1051.71 50.2865 1051.64 49.9714 1051.52 49.6953C1051.4 49.4193 1051.22 49.2005 1050.97 49.0391C1050.73 48.8776 1050.43 48.7969 1050.05 48.7969ZM1059.57 54.2578C1059.83 54.2578 1060.08 54.2318 1060.32 54.1797C1060.57 54.1276 1060.82 54.0625 1061.07 53.9844V55.7578C1060.81 55.8724 1060.49 55.9661 1060.11 56.0391C1059.74 56.1172 1059.33 56.1562 1058.88 56.1562C1058.36 56.1562 1057.89 56.0729 1057.47 55.9062C1057.06 55.7344 1056.74 55.4401 1056.5 55.0234C1056.26 54.6016 1056.14 54.0156 1056.14 53.2656V49.0547H1055V48.0469L1056.32 47.25L1057 45.4062H1058.53V47.2656H1060.97V49.0547H1058.53V53.2656C1058.53 53.599 1058.62 53.849 1058.81 54.0156C1059 54.1771 1059.25 54.2578 1059.57 54.2578ZM1069.38 47.2656V56H1067V47.2656H1069.38ZM1068.19 43.8438C1068.55 43.8438 1068.85 43.9271 1069.11 44.0938C1069.36 44.2552 1069.49 44.5599 1069.49 45.0078C1069.49 45.4505 1069.36 45.7578 1069.11 45.9297C1068.85 46.0964 1068.55 46.1797 1068.19 46.1797C1067.83 46.1797 1067.53 46.0964 1067.27 45.9297C1067.02 45.7578 1066.89 45.4505 1066.89 45.0078C1066.89 44.5599 1067.02 44.2552 1067.27 44.0938C1067.53 43.9271 1067.83 43.8438 1068.19 43.8438ZM1075.57 54.2578C1075.83 54.2578 1076.08 54.2318 1076.32 54.1797C1076.57 54.1276 1076.82 54.0625 1077.07 53.9844V55.7578C1076.81 55.8724 1076.49 55.9661 1076.11 56.0391C1075.74 56.1172 1075.33 56.1562 1074.88 56.1562C1074.36 56.1562 1073.89 56.0729 1073.47 55.9062C1073.06 55.7344 1072.74 55.4401 1072.5 55.0234C1072.26 54.6016 1072.14 54.0156 1072.14 53.2656V49.0547H1071V48.0469L1072.32 47.25L1073 45.4062H1074.53V47.2656H1076.97V49.0547H1074.53V53.2656C1074.53 53.599 1074.62 53.849 1074.81 54.0156C1075 54.1771 1075.25 54.2578 1075.57 54.2578ZM1087.96 47.1016C1088.89 47.1016 1089.64 47.3568 1090.21 47.8672C1090.78 48.3724 1091.06 49.1849 1091.06 50.3047V56H1088.68V50.8984C1088.68 50.2734 1088.56 49.8021 1088.33 49.4844C1088.11 49.1667 1087.75 49.0078 1087.27 49.0078C1086.54 49.0078 1086.04 49.2552 1085.78 49.75C1085.51 50.2448 1085.38 50.9583 1085.38 51.8906V56H1083V47.2656H1084.82L1085.14 48.3828H1085.27C1085.46 48.0807 1085.69 47.8359 1085.97 47.6484C1086.25 47.4609 1086.56 47.3229 1086.89 47.2344C1087.24 47.1458 1087.59 47.1016 1087.96 47.1016ZM1101.45 51.6172C1101.45 52.3464 1101.35 52.9922 1101.15 53.5547C1100.96 54.1172 1100.68 54.5938 1100.3 54.9844C1099.93 55.3698 1099.48 55.6615 1098.96 55.8594C1098.44 56.0573 1097.85 56.1562 1097.19 56.1562C1096.58 56.1562 1096.01 56.0573 1095.5 55.8594C1094.99 55.6615 1094.54 55.3698 1094.16 54.9844C1093.79 54.5938 1093.49 54.1172 1093.29 53.5547C1093.08 52.9922 1092.98 52.3464 1092.98 51.6172C1092.98 50.6484 1093.15 49.8281 1093.5 49.1562C1093.84 48.4844 1094.33 47.974 1094.97 47.625C1095.6 47.276 1096.36 47.1016 1097.24 47.1016C1098.06 47.1016 1098.78 47.276 1099.41 47.625C1100.05 47.974 1100.54 48.4844 1100.9 49.1562C1101.27 49.8281 1101.45 50.6484 1101.45 51.6172ZM1095.41 51.6172C1095.41 52.1901 1095.47 52.6719 1095.6 53.0625C1095.72 53.4531 1095.92 53.7474 1096.18 53.9453C1096.45 54.1432 1096.8 54.2422 1097.22 54.2422C1097.64 54.2422 1097.99 54.1432 1098.25 53.9453C1098.51 53.7474 1098.7 53.4531 1098.82 53.0625C1098.95 52.6719 1099.01 52.1901 1099.01 51.6172C1099.01 51.0391 1098.95 50.5599 1098.82 50.1797C1098.7 49.7943 1098.51 49.5052 1098.25 49.3125C1097.98 49.1198 1097.63 49.0234 1097.21 49.0234C1096.58 49.0234 1096.12 49.2396 1095.83 49.6719C1095.55 50.1042 1095.41 50.7526 1095.41 51.6172ZM1110.6 56L1109.93 52.9453C1109.89 52.763 1109.83 52.4948 1109.75 52.1406C1109.66 51.7812 1109.57 51.3984 1109.47 50.9922C1109.38 50.5807 1109.29 50.2005 1109.21 49.8516C1109.13 49.5026 1109.07 49.2474 1109.04 49.0859H1108.97C1108.93 49.2474 1108.87 49.5026 1108.79 49.8516C1108.72 50.2005 1108.63 50.5807 1108.53 50.9922C1108.43 51.4036 1108.35 51.7917 1108.26 52.1562C1108.18 52.5156 1108.12 52.7891 1108.07 52.9766L1107.37 56H1104.81L1102.32 47.2656H1104.7L1105.71 51.1328C1105.78 51.4036 1105.84 51.7266 1105.9 52.1016C1105.97 52.4714 1106.02 52.8307 1106.07 53.1797C1106.12 53.5234 1106.16 53.7969 1106.18 54H1106.25C1106.26 53.849 1106.28 53.6484 1106.31 53.3984C1106.35 53.1484 1106.38 52.8906 1106.43 52.625C1106.47 52.3542 1106.51 52.112 1106.55 51.8984C1106.59 51.6797 1106.62 51.5312 1106.64 51.4531L1107.72 47.2656H1110.35L1111.37 51.4531C1111.41 51.6042 1111.45 51.8438 1111.51 52.1719C1111.57 52.5 1111.63 52.8385 1111.68 53.1875C1111.72 53.5312 1111.75 53.8021 1111.75 54H1111.82C1111.84 53.8229 1111.87 53.5599 1111.93 53.2109C1111.98 52.862 1112.04 52.4974 1112.11 52.1172C1112.18 51.7318 1112.25 51.4036 1112.32 51.1328L1113.37 47.2656H1115.71L1113.19 56H1110.6Z" fill="#1565D8"/>
</g>
</g>
</g>
<defs>
<filter id="filter0_d_2_403" x="984" y="11" width="181" height="98" filterUnits="userSpaceOnUse" color-interpolation-filters="sRGB">
<feFlood flood-opacity="0" result="BackgroundImageFix"/>
<feColorMatrix in="SourceAlpha" type="matrix" values="0 0 0 0 0 0 0 0 0 0 0 0 0 0 0 0 0 0 127 0" result="hardAlpha"/>
<feOffset dy="10"/>
<feGaussianBlur stdDeviation="12.5"/>
<feColorMatrix type="matrix" values="0 0 0 0 0.0823529 0 0 0 0 0.145098 0 0 0 0 0.282353 0 0 0 0.1 0"/>
<feBlend mode="normal" in2="BackgroundImageFix" result="effect1_dropShadow_2_403"/>
<feBlend mode="normal" in="SourceGraphic" in2="effect1_dropShadow_2_403" result="shape"/>
</filter>
<linearGradient id="paint0_linear_2_403" x1="0" y1="36" x2="0" y2="64" gradientUnits="userSpaceOnUse">
<stop stop-color="#254A72"/>
<stop offset="1" stop-color="#10243E"/>
</linearGradient>
<clipPath id="clip0_2_403">
<rect width="1140" height="100" fill="white"/>
</clipPath>
<clipPath id="clip1_2_403">
<rect width="594" height="48" fill="white" transform="translate(546 26)"/>
</clipPath>
<clipPath id="clip2_2_403">
<rect width="423" height="22" fill="white" transform="translate(546 39)"/>
</clipPath>
<clipPath id="clip3_2_403">
<rect width="59" height="22" fill="white" transform="translate(756 39)"/>
</clipPath>
<clipPath id="clip4_2_403">
<rect width="83" height="22" fill="white" transform="translate(633 39)"/>
</clipPath>
</defs>
</svg>
