<svg width="78" height="78" viewBox="0 0 78 78" fill="none" xmlns="http://www.w3.org/2000/svg">
<path d="M56.9688 36.1875L29.4688 19.4688C26.9688 18.2188 24 19.9375 24 22.75V55.25C24 58.2188 26.9688 59.9375 29.4688 58.5312L56.9688 42.75C59.625 41.3438 59.625 37.75 56.9688 36.1875ZM77.75 39C77.75 17.5938 60.4062 0.25 39 0.25C17.5938 0.25 0.25 17.5938 0.25 39C0.25 60.4062 17.5938 77.75 39 77.75C60.4062 77.75 77.75 60.4062 77.75 39ZM7.75 39C7.75 21.8125 21.6562 7.75 39 7.75C56.1875 7.75 70.25 21.8125 70.25 39C70.25 56.3438 56.1875 70.25 39 70.25C21.6562 70.25 7.75 56.3438 7.75 39Z" fill="white"/>
</svg>
