<svg width="264" height="32" viewBox="0 0 264 32" fill="none" xmlns="http://www.w3.org/2000/svg">
<g clip-path="url(#clip0_2_396)">
<path d="M21.5156 11.125C22.4531 10.4219 23.2969 9.57812 23.9531 8.59375C23.1094 8.96875 22.125 9.25 21.1406 9.34375C22.1719 8.73438 22.9219 7.79688 23.2969 6.625C22.3594 7.1875 21.2812 7.60938 20.2031 7.84375C19.2656 6.85938 18 6.29688 16.5938 6.29688C13.875 6.29688 11.6719 8.5 11.6719 11.2188C11.6719 11.5938 11.7188 11.9688 11.8125 12.3438C7.73438 12.1094 4.07812 10.1406 1.64062 7.1875C1.21875 7.89062 0.984375 8.73438 0.984375 9.67188C0.984375 11.3594 1.82812 12.8594 3.1875 13.75C2.39062 13.7031 1.59375 13.5156 0.9375 13.1406V13.1875C0.9375 15.5781 2.625 17.5469 4.875 18.0156C4.5 18.1094 4.03125 18.2031 3.60938 18.2031C3.28125 18.2031 3 18.1562 2.67188 18.1094C3.28125 20.0781 5.10938 21.4844 7.26562 21.5312C5.57812 22.8438 3.46875 23.6406 1.17188 23.6406C0.75 23.6406 0.375 23.5938 0 23.5469C2.15625 24.9531 4.73438 25.75 7.54688 25.75C16.5938 25.75 21.5156 18.2969 21.5156 11.7812C21.5156 11.5469 21.5156 11.3594 21.5156 11.125Z" fill="#1565D8"/>
<path d="M58.5 10.6094C55.5 10.6094 53.1094 13.0469 53.1094 16C53.1094 19 55.5 21.3906 58.5 21.3906C61.4531 21.3906 63.8906 19 63.8906 16C63.8906 13.0469 61.4531 10.6094 58.5 10.6094ZM58.5 19.5156C56.5781 19.5156 54.9844 17.9688 54.9844 16C54.9844 14.0781 56.5312 12.5312 58.5 12.5312C60.4219 12.5312 61.9688 14.0781 61.9688 16C61.9688 17.9688 60.4219 19.5156 58.5 19.5156ZM65.3438 10.4219C65.3438 9.71875 64.7812 9.15625 64.0781 9.15625C63.375 9.15625 62.8125 9.71875 62.8125 10.4219C62.8125 11.125 63.375 11.6875 64.0781 11.6875C64.7812 11.6875 65.3438 11.125 65.3438 10.4219ZM68.9062 11.6875C68.8125 10 68.4375 8.5 67.2188 7.28125C66 6.0625 64.5 5.6875 62.8125 5.59375C61.0781 5.5 55.875 5.5 54.1406 5.59375C52.4531 5.6875 51 6.0625 49.7344 7.28125C48.5156 8.5 48.1406 10 48.0469 11.6875C47.9531 13.4219 47.9531 18.625 48.0469 20.3594C48.1406 22.0469 48.5156 23.5 49.7344 24.7656C51 25.9844 52.4531 26.3594 54.1406 26.4531C55.875 26.5469 61.0781 26.5469 62.8125 26.4531C64.5 26.3594 66 25.9844 67.2188 24.7656C68.4375 23.5 68.8125 22.0469 68.9062 20.3594C69 18.625 69 13.4219 68.9062 11.6875ZM66.6562 22.1875C66.3281 23.125 65.5781 23.8281 64.6875 24.2031C63.2812 24.7656 60 24.625 58.5 24.625C56.9531 24.625 53.6719 24.7656 52.3125 24.2031C51.375 23.8281 50.6719 23.125 50.2969 22.1875C49.7344 20.8281 49.875 17.5469 49.875 16C49.875 14.5 49.7344 11.2188 50.2969 9.8125C50.6719 8.92188 51.375 8.21875 52.3125 7.84375C53.6719 7.28125 56.9531 7.42188 58.5 7.42188C60 7.42188 63.2812 7.28125 64.6875 7.84375C65.5781 8.17188 66.2812 8.92188 66.6562 9.8125C67.2188 11.2188 67.0781 14.5 67.0781 16C67.0781 17.5469 67.2188 20.8281 66.6562 22.1875Z" fill="#1565D8"/>
<path d="M118.734 9.85938C118.453 8.73438 117.562 7.84375 116.484 7.5625C114.469 7 106.5 7 106.5 7C106.5 7 98.4844 7 96.4688 7.5625C95.3906 7.84375 94.5 8.73438 94.2188 9.85938C93.6562 11.8281 93.6562 16.0469 93.6562 16.0469C93.6562 16.0469 93.6562 20.2188 94.2188 22.2344C94.5 23.3594 95.3906 24.2031 96.4688 24.4844C98.4844 25 106.5 25 106.5 25C106.5 25 114.469 25 116.484 24.4844C117.562 24.2031 118.453 23.3594 118.734 22.2344C119.297 20.2188 119.297 16.0469 119.297 16.0469C119.297 16.0469 119.297 11.8281 118.734 9.85938ZM103.875 19.8438V12.25L110.531 16.0469L103.875 19.8438Z" fill="#1565D8"/>
<path d="M158.906 16.6094C158.906 14.875 159.703 13.6094 161.25 12.625C160.359 11.3594 159.047 10.7031 157.312 10.5625C155.625 10.4219 153.797 11.5 153.141 11.5C152.438 11.5 150.844 10.6094 149.578 10.6094C146.953 10.6562 144.188 12.6719 144.188 16.8438C144.188 18.0625 144.375 19.3281 144.844 20.6406C145.453 22.375 147.609 26.5938 149.859 26.5C151.031 26.5 151.875 25.6562 153.422 25.6562C154.922 25.6562 155.672 26.5 156.984 26.5C159.281 26.5 161.25 22.6562 161.812 20.9219C158.766 19.4688 158.906 16.7031 158.906 16.6094ZM156.281 8.92188C157.547 7.42188 157.406 6.01562 157.406 5.5C156.281 5.59375 154.969 6.29688 154.219 7.14062C153.375 8.07812 152.906 9.25 153 10.5156C154.219 10.6094 155.344 10 156.281 8.92188Z" fill="#1565D8"/>
<path d="M191.203 16.0469C191.203 15.9531 191.109 15.8594 191.016 15.8594C190.875 15.8594 190.781 15.9531 190.781 16.0469L190.547 19.0938L190.781 22.2812C190.781 22.4219 190.875 22.4688 191.016 22.4688C191.109 22.4688 191.203 22.4219 191.203 22.2812L191.484 19.0938L191.203 16.0469ZM192.188 13.8906C192.094 13.8906 192 13.9844 191.953 14.125L191.719 19.0938L191.953 22.2812C192 22.4219 192.094 22.5156 192.188 22.5156C192.328 22.5156 192.422 22.4219 192.422 22.2812L192.703 19.0938L192.422 14.125C192.422 13.9844 192.328 13.8906 192.188 13.8906ZM193.406 12.7656C193.266 12.7656 193.172 12.8594 193.125 13L192.938 19.0938L193.125 22.2812C193.172 22.4219 193.266 22.5156 193.406 22.5156C193.547 22.5156 193.641 22.4219 193.641 22.2812L193.875 19.0938L193.641 13C193.641 12.8594 193.547 12.7656 193.406 12.7656ZM186.328 17.3125C186.234 17.3125 186.234 17.3594 186.188 17.4062L186 19.0938L186.188 20.7344C186.234 20.7812 186.234 20.8281 186.328 20.8281C186.375 20.8281 186.422 20.7812 186.422 20.7344L186.703 19.0938L186.422 17.4062C186.422 17.3594 186.375 17.3125 186.328 17.3125ZM187.406 16.2812C187.359 16.2812 187.312 16.3281 187.312 16.375L186.984 19.0938L187.312 21.7188C187.312 21.8125 187.359 21.8594 187.406 21.8594C187.5 21.8594 187.547 21.8125 187.547 21.7188L187.875 19.0938L187.547 16.375C187.547 16.3281 187.5 16.2812 187.406 16.2812ZM188.625 15.7188C188.531 15.7188 188.484 15.8125 188.438 15.9062L188.203 19.0938L188.438 22.1875C188.484 22.2344 188.531 22.3281 188.625 22.3281C188.672 22.3281 188.766 22.2344 188.766 22.1875L189.094 19.0938L188.766 15.9062C188.766 15.8125 188.672 15.7188 188.625 15.7188ZM189.797 15.625C189.703 15.625 189.609 15.7188 189.609 15.8125L189.375 19.0938L189.609 22.2812C189.609 22.375 189.703 22.4219 189.797 22.4219C189.891 22.4219 189.984 22.375 189.984 22.2812L190.266 19.0938L189.984 15.8125C189.984 15.7188 189.891 15.625 189.797 15.625ZM201.094 10.4219C201.047 10.375 201 10.375 200.906 10.375C200.812 10.375 200.719 10.4219 200.672 10.4688C200.578 10.5156 200.484 10.6562 200.484 10.75V10.7969L200.344 19.0938L200.438 20.5938L200.484 22.0938C200.531 22.3281 200.719 22.5156 200.906 22.5156C201.141 22.5156 201.328 22.3281 201.328 22.0938L201.516 19.0938L201.328 10.75C201.281 10.6094 201.234 10.5156 201.094 10.4219ZM199.875 11.1719C199.781 11.125 199.734 11.0781 199.641 11.0781C199.594 11.0781 199.5 11.125 199.453 11.1719C199.359 11.2188 199.266 11.3125 199.266 11.4531V11.5469L199.125 19.0938C199.125 19.0938 199.125 19.0938 199.266 22.1406V22.1875C199.266 22.2344 199.312 22.3281 199.359 22.375C199.453 22.4688 199.547 22.5156 199.641 22.5156C199.781 22.5156 199.875 22.4688 199.922 22.4219C200.016 22.375 200.016 22.2812 200.016 22.1406L200.062 21.8594L200.203 19.0938L200.062 11.4531C200.016 11.3125 199.969 11.2188 199.875 11.1719ZM194.625 12.2031C194.484 12.2031 194.344 12.3438 194.344 12.4844L194.156 19.0938L194.344 22.2344C194.391 22.375 194.484 22.5156 194.625 22.5156C194.812 22.5156 194.906 22.375 194.906 22.2344L195.141 19.0938L194.906 12.4844C194.906 12.3438 194.812 12.2031 194.625 12.2031ZM212.297 15.1562C211.781 15.1562 211.312 15.25 210.844 15.4375C210.562 12.1094 207.797 9.53125 204.375 9.53125C203.531 9.53125 202.734 9.67188 202.031 9.95312C201.75 10.0469 201.656 10.1406 201.656 10.375V22.0938C201.656 22.3281 201.844 22.4688 202.078 22.5156H212.297C214.312 22.5156 215.953 20.875 215.953 18.8594C216 16.7969 214.312 15.1562 212.297 15.1562ZM198.375 12.3438C198.188 12.3438 198.047 12.4844 198 12.6719L197.859 19.0938L198 22.1875C198.047 22.375 198.188 22.5156 198.375 22.5156C198.562 22.5156 198.75 22.375 198.75 22.1875L198.938 19.0938L198.75 12.6719C198.703 12.4844 198.562 12.3438 198.375 12.3438ZM195.891 11.9688C195.703 11.9688 195.562 12.1094 195.562 12.25L195.375 19.0938L195.562 22.2344C195.609 22.375 195.703 22.5156 195.891 22.5156C196.031 22.5156 196.172 22.375 196.172 22.2344L196.406 19.0938L196.172 12.25C196.172 12.1094 196.031 11.9688 195.891 11.9688ZM197.109 12.1094C196.922 12.1094 196.781 12.25 196.781 12.4375L196.641 19.0938L196.781 22.1875C196.828 22.375 196.969 22.5156 197.109 22.5156C197.297 22.5156 197.438 22.375 197.438 22.1875L197.625 19.0938L197.438 12.4375C197.438 12.25 197.297 12.1094 197.109 12.1094Z" fill="#1565D8"/>
<path d="M251.625 4.375C245.203 4.375 240 9.625 240 16C240 22.4219 245.203 27.625 251.625 27.625C258 27.625 263.25 22.4219 263.25 16C263.25 9.625 258 4.375 251.625 4.375ZM256.312 21.4844C256.125 21.4844 255.984 21.4375 255.844 21.3438C252.891 19.5625 249.516 19.5156 246.141 20.1719C245.953 20.2188 245.719 20.3125 245.578 20.3125C245.109 20.3125 244.828 19.9375 244.828 19.5625C244.828 19.0938 245.109 18.8594 245.484 18.7656C249.328 17.9219 253.219 18.0156 256.594 19.9844C256.875 20.1719 257.016 20.3594 257.016 20.7812C257.016 21.2031 256.688 21.4844 256.312 21.4844ZM257.578 18.4375C257.344 18.4375 257.156 18.2969 257.016 18.25C254.062 16.5156 249.703 15.8125 245.812 16.8438C245.578 16.8906 245.484 16.9844 245.25 16.9844C244.781 16.9844 244.359 16.5625 244.359 16.0469C244.359 15.5781 244.594 15.25 245.062 15.1094C246.375 14.7344 247.734 14.4531 249.656 14.4531C252.703 14.4531 255.656 15.2031 257.953 16.6094C258.328 16.7969 258.516 17.125 258.516 17.5C258.469 18.0156 258.094 18.4375 257.578 18.4375ZM259.031 14.875C258.797 14.875 258.656 14.7812 258.422 14.6875C255.094 12.6719 249.141 12.2031 245.25 13.2812C245.109 13.3281 244.875 13.4219 244.641 13.4219C244.031 13.4219 243.562 12.9062 243.562 12.2969C243.562 11.6406 243.984 11.3125 244.406 11.1719C246.047 10.7031 247.875 10.4688 249.891 10.4688C253.312 10.4688 256.922 11.1719 259.5 12.7188C259.875 12.9062 260.109 13.1875 260.109 13.75C260.109 14.4062 259.594 14.875 259.031 14.875Z" fill="#1565D8"/>
</g>
<defs>
<clipPath id="clip0_2_396">
<rect width="264" height="32" fill="white"/>
</clipPath>
</defs>
</svg>
