<svg width="30" height="14" viewBox="0 0 30 14" fill="none" xmlns="http://www.w3.org/2000/svg">
<path d="M5.20312 7.04688C5.20312 6.95312 5.10938 6.85938 5.01562 6.85938C4.875 6.85938 4.78125 6.95312 4.78125 7.04688L4.54688 10.0938L4.78125 13.2812C4.78125 13.4219 4.875 13.4688 5.01562 13.4688C5.10938 13.4688 5.20312 13.4219 5.20312 13.2812L5.48438 10.0938L5.20312 7.04688ZM6.1875 4.89062C6.09375 4.89062 6 4.98438 5.95312 5.125L5.71875 10.0938L5.95312 13.2812C6 13.4219 6.09375 13.5156 6.1875 13.5156C6.32812 13.5156 6.42188 13.4219 6.42188 13.2812L6.70312 10.0938L6.42188 5.125C6.42188 4.98438 6.32812 4.89062 6.1875 4.89062ZM7.40625 3.76562C7.26562 3.76562 7.17188 3.85938 7.125 4L6.9375 10.0938L7.125 13.2812C7.17188 13.4219 7.26562 13.5156 7.40625 13.5156C7.54688 13.5156 7.64062 13.4219 7.64062 13.2812L7.875 10.0938L7.64062 4C7.64062 3.85938 7.54688 3.76562 7.40625 3.76562ZM0.328125 8.3125C0.234375 8.3125 0.234375 8.35938 0.1875 8.40625L0 10.0938L0.1875 11.7344C0.234375 11.7812 0.234375 11.8281 0.328125 11.8281C0.375 11.8281 0.421875 11.7812 0.421875 11.7344L0.703125 10.0938L0.421875 8.40625C0.421875 8.35938 0.375 8.3125 0.328125 8.3125ZM1.40625 7.28125C1.35938 7.28125 1.3125 7.32812 1.3125 7.375L0.984375 10.0938L1.3125 12.7188C1.3125 12.8125 1.35938 12.8594 1.40625 12.8594C1.5 12.8594 1.54688 12.8125 1.54688 12.7188L1.875 10.0938L1.54688 7.375C1.54688 7.32812 1.5 7.28125 1.40625 7.28125ZM2.625 6.71875C2.53125 6.71875 2.48438 6.8125 2.4375 6.90625L2.20312 10.0938L2.4375 13.1875C2.48438 13.2344 2.53125 13.3281 2.625 13.3281C2.67188 13.3281 2.76562 13.2344 2.76562 13.1875L3.09375 10.0938L2.76562 6.90625C2.76562 6.8125 2.67188 6.71875 2.625 6.71875ZM3.79688 6.625C3.70312 6.625 3.60938 6.71875 3.60938 6.8125L3.375 10.0938L3.60938 13.2812C3.60938 13.375 3.70312 13.4219 3.79688 13.4219C3.89062 13.4219 3.98438 13.375 3.98438 13.2812L4.26562 10.0938L3.98438 6.8125C3.98438 6.71875 3.89062 6.625 3.79688 6.625ZM15.0938 1.42188C15.0469 1.375 15 1.375 14.9062 1.375C14.8125 1.375 14.7188 1.42188 14.6719 1.46875C14.5781 1.51562 14.4844 1.65625 14.4844 1.75V1.79688L14.3438 10.0938L14.4375 11.5938L14.4844 13.0938C14.5312 13.3281 14.7188 13.5156 14.9062 13.5156C15.1406 13.5156 15.3281 13.3281 15.3281 13.0938L15.5156 10.0938L15.3281 1.75C15.2812 1.60938 15.2344 1.51562 15.0938 1.42188ZM13.875 2.17188C13.7812 2.125 13.7344 2.07812 13.6406 2.07812C13.5938 2.07812 13.5 2.125 13.4531 2.17188C13.3594 2.21875 13.2656 2.3125 13.2656 2.45312V2.54688L13.125 10.0938C13.125 10.0938 13.125 10.0938 13.2656 13.1406V13.1875C13.2656 13.2344 13.3125 13.3281 13.3594 13.375C13.4531 13.4688 13.5469 13.5156 13.6406 13.5156C13.7812 13.5156 13.875 13.4688 13.9219 13.4219C14.0156 13.375 14.0156 13.2812 14.0156 13.1406L14.0625 12.8594L14.2031 10.0938L14.0625 2.45312C14.0156 2.3125 13.9688 2.21875 13.875 2.17188ZM8.625 3.20312C8.48438 3.20312 8.34375 3.34375 8.34375 3.48438L8.15625 10.0938L8.34375 13.2344C8.39062 13.375 8.48438 13.5156 8.625 13.5156C8.8125 13.5156 8.90625 13.375 8.90625 13.2344L9.14062 10.0938L8.90625 3.48438C8.90625 3.34375 8.8125 3.20312 8.625 3.20312ZM26.2969 6.15625C25.7812 6.15625 25.3125 6.25 24.8438 6.4375C24.5625 3.10938 21.7969 0.53125 18.375 0.53125C17.5312 0.53125 16.7344 0.671875 16.0312 0.953125C15.75 1.04688 15.6562 1.14062 15.6562 1.375V13.0938C15.6562 13.3281 15.8438 13.4688 16.0781 13.5156H26.2969C28.3125 13.5156 29.9531 11.875 29.9531 9.85938C30 7.79688 28.3125 6.15625 26.2969 6.15625ZM12.375 3.34375C12.1875 3.34375 12.0469 3.48438 12 3.67188L11.8594 10.0938L12 13.1875C12.0469 13.375 12.1875 13.5156 12.375 13.5156C12.5625 13.5156 12.75 13.375 12.75 13.1875L12.9375 10.0938L12.75 3.67188C12.7031 3.48438 12.5625 3.34375 12.375 3.34375ZM9.89062 2.96875C9.70312 2.96875 9.5625 3.10938 9.5625 3.25L9.375 10.0938L9.5625 13.2344C9.60938 13.375 9.70312 13.5156 9.89062 13.5156C10.0312 13.5156 10.1719 13.375 10.1719 13.2344L10.4062 10.0938L10.1719 3.25C10.1719 3.10938 10.0312 2.96875 9.89062 2.96875ZM11.1094 3.10938C10.9219 3.10938 10.7812 3.25 10.7812 3.4375L10.6406 10.0938L10.7812 13.1875C10.8281 13.375 10.9688 13.5156 11.1094 13.5156C11.2969 13.5156 11.4375 13.375 11.4375 13.1875L11.625 10.0938L11.4375 3.4375C11.4375 3.25 11.2969 3.10938 11.1094 3.10938Z" fill="#1565D8"/>
</svg>
