<svg width="24" height="24" viewBox="0 0 24 24" fill="none" xmlns="http://www.w3.org/2000/svg">
<path d="M11.625 0.375C5.20312 0.375 0 5.625 0 12C0 18.4219 5.20312 23.625 11.625 23.625C18 23.625 23.25 18.4219 23.25 12C23.25 5.625 18 0.375 11.625 0.375ZM16.3125 17.4844C16.125 17.4844 15.9844 17.4375 15.8438 17.3438C12.8906 15.5625 9.51562 15.5156 6.14062 16.1719C5.95312 16.2188 5.71875 16.3125 5.57812 16.3125C5.10938 16.3125 4.82812 15.9375 4.82812 15.5625C4.82812 15.0938 5.10938 14.8594 5.48438 14.7656C9.32812 13.9219 13.2188 14.0156 16.5938 15.9844C16.875 16.1719 17.0156 16.3594 17.0156 16.7812C17.0156 17.2031 16.6875 17.4844 16.3125 17.4844ZM17.5781 14.4375C17.3438 14.4375 17.1562 14.2969 17.0156 14.25C14.0625 12.5156 9.70312 11.8125 5.8125 12.8438C5.57812 12.8906 5.48438 12.9844 5.25 12.9844C4.78125 12.9844 4.35938 12.5625 4.35938 12.0469C4.35938 11.5781 4.59375 11.25 5.0625 11.1094C6.375 10.7344 7.73438 10.4531 9.65625 10.4531C12.7031 10.4531 15.6562 11.2031 17.9531 12.6094C18.3281 12.7969 18.5156 13.125 18.5156 13.5C18.4688 14.0156 18.0938 14.4375 17.5781 14.4375ZM19.0312 10.875C18.7969 10.875 18.6562 10.7812 18.4219 10.6875C15.0938 8.67188 9.14062 8.20312 5.25 9.28125C5.10938 9.32812 4.875 9.42188 4.64062 9.42188C4.03125 9.42188 3.5625 8.90625 3.5625 8.29688C3.5625 7.64062 3.98438 7.3125 4.40625 7.17188C6.04688 6.70312 7.875 6.46875 9.89062 6.46875C13.3125 6.46875 16.9219 7.17188 19.5 8.71875C19.875 8.90625 20.1094 9.1875 20.1094 9.75C20.1094 10.4062 19.5938 10.875 19.0312 10.875Z" fill="#1565D8"/>
</svg>
