<svg width="167" height="18" viewBox="0 0 167 18" fill="none" xmlns="http://www.w3.org/2000/svg">
<path d="M0.0234375 16V3.15039H2.74805V13.75H7.95996V16H0.0234375ZM9.87598 3.63379C9.87598 2.76074 10.3623 2.32422 11.335 2.32422C12.3076 2.32422 12.7939 2.76074 12.7939 3.63379C12.7939 4.0498 12.6709 4.375 12.4248 4.60938C12.1846 4.83789 11.8213 4.95215 11.335 4.95215C10.3623 4.95215 9.87598 4.5127 9.87598 3.63379ZM12.6709 16H9.99023V6.17383H12.6709V16ZM22.3477 13.082C22.3477 14.0898 21.9961 14.8574 21.293 15.3848C20.5957 15.9121 19.5498 16.1758 18.1553 16.1758C17.4404 16.1758 16.8311 16.126 16.3271 16.0264C15.8232 15.9326 15.3516 15.792 14.9121 15.6045V13.3896C15.4102 13.624 15.9697 13.8203 16.5908 13.9785C17.2178 14.1367 17.7686 14.2158 18.2432 14.2158C19.2158 14.2158 19.7021 13.9346 19.7021 13.3721C19.7021 13.1611 19.6377 12.9912 19.5088 12.8623C19.3799 12.7275 19.1572 12.5781 18.8408 12.4141C18.5244 12.2441 18.1025 12.0479 17.5752 11.8252C16.8193 11.5088 16.2627 11.2158 15.9053 10.9463C15.5537 10.6768 15.2959 10.3691 15.1318 10.0234C14.9736 9.67188 14.8945 9.24121 14.8945 8.73145C14.8945 7.8584 15.2314 7.18457 15.9053 6.70996C16.585 6.22949 17.5459 5.98926 18.7881 5.98926C19.9717 5.98926 21.123 6.24707 22.2422 6.7627L21.4336 8.69629C20.9414 8.48535 20.4814 8.3125 20.0537 8.17773C19.626 8.04297 19.1895 7.97559 18.7441 7.97559C17.9531 7.97559 17.5576 8.18945 17.5576 8.61719C17.5576 8.85742 17.6836 9.06543 17.9355 9.24121C18.1934 9.41699 18.7529 9.67773 19.6143 10.0234C20.3818 10.334 20.9443 10.624 21.3018 10.8936C21.6592 11.1631 21.9229 11.4736 22.0928 11.8252C22.2627 12.1768 22.3477 12.5957 22.3477 13.082ZM28.5791 14.04C29.0479 14.04 29.6104 13.9375 30.2666 13.7324V15.7275C29.5986 16.0264 28.7783 16.1758 27.8057 16.1758C26.7334 16.1758 25.9512 15.9062 25.459 15.3672C24.9727 14.8223 24.7295 14.0078 24.7295 12.9238V8.18652H23.4463V7.05273L24.9229 6.15625L25.6963 4.08203H27.4102V6.17383H30.1611V8.18652H27.4102V12.9238C27.4102 13.3047 27.5156 13.5859 27.7266 13.7676C27.9434 13.9492 28.2275 14.04 28.5791 14.04ZM36.3311 7.89648C35.7627 7.89648 35.3174 8.07812 34.9951 8.44141C34.6729 8.79883 34.4883 9.30859 34.4414 9.9707H38.2031C38.1914 9.30859 38.0186 8.79883 37.6846 8.44141C37.3506 8.07812 36.8994 7.89648 36.3311 7.89648ZM36.709 16.1758C35.127 16.1758 33.8906 15.7393 33 14.8662C32.1094 13.9932 31.6641 12.7568 31.6641 11.1572C31.6641 9.51074 32.0742 8.23926 32.8945 7.34277C33.7207 6.44043 34.8604 5.98926 36.3135 5.98926C37.7021 5.98926 38.7832 6.38477 39.5566 7.17578C40.3301 7.9668 40.7168 9.05957 40.7168 10.4541V11.7549H34.3799C34.4092 12.5166 34.6348 13.1113 35.0566 13.5391C35.4785 13.9668 36.0703 14.1807 36.832 14.1807C37.4238 14.1807 37.9834 14.1191 38.5107 13.9961C39.0381 13.873 39.5889 13.6768 40.1631 13.4072V15.4814C39.6943 15.7158 39.1934 15.8887 38.6602 16C38.127 16.1172 37.4766 16.1758 36.709 16.1758ZM51.9668 16H49.2861V10.2607C49.2861 9.55176 49.1602 9.02148 48.9082 8.66992C48.6562 8.3125 48.2549 8.13379 47.7041 8.13379C46.9541 8.13379 46.4121 8.38574 46.0781 8.88965C45.7441 9.3877 45.5771 10.2168 45.5771 11.377V16H42.8965V6.17383H44.9443L45.3047 7.43066H45.4541C45.7529 6.95605 46.1631 6.59863 46.6846 6.3584C47.2119 6.1123 47.8096 5.98926 48.4775 5.98926C49.6201 5.98926 50.4873 6.2998 51.0791 6.9209C51.6709 7.53613 51.9668 8.42676 51.9668 9.59277V16ZM67.4795 16L66.5479 12.9414H61.8633L60.9316 16H57.9961L62.5312 3.09766H65.8623L70.415 16H67.4795ZM65.8975 10.6562C65.0361 7.88477 64.5498 6.31738 64.4385 5.9541C64.333 5.59082 64.2568 5.30371 64.21 5.09277C64.0166 5.84277 63.4629 7.69727 62.5488 10.6562H65.8975ZM74.5107 16H71.8301V2.32422H74.5107V16ZM82.7988 5.98926C83.959 5.98926 84.8672 6.44336 85.5234 7.35156C86.1797 8.25391 86.5078 9.49316 86.5078 11.0693C86.5078 12.6924 86.168 13.9492 85.4883 14.8398C84.8145 15.7305 83.8945 16.1758 82.7285 16.1758C81.5742 16.1758 80.6689 15.7568 80.0127 14.9189H79.8281L79.3799 16H77.332V2.32422H80.0127V5.50586C80.0127 5.91016 79.9775 6.55762 79.9072 7.44824H80.0127C80.6396 6.47559 81.5684 5.98926 82.7988 5.98926ZM81.9375 8.13379C81.2754 8.13379 80.792 8.33887 80.4873 8.74902C80.1826 9.15332 80.0244 9.82422 80.0127 10.7617V11.0518C80.0127 12.1064 80.168 12.8623 80.4785 13.3193C80.7949 13.7764 81.293 14.0049 81.9727 14.0049C82.5234 14.0049 82.96 13.7529 83.2822 13.249C83.6104 12.7393 83.7744 12.001 83.7744 11.0342C83.7744 10.0674 83.6104 9.34375 83.2822 8.86328C82.9541 8.37695 82.5059 8.13379 81.9375 8.13379ZM95.6836 16L95.3232 14.7432H95.1826C94.8955 15.2002 94.4883 15.5547 93.9609 15.8066C93.4336 16.0527 92.833 16.1758 92.1592 16.1758C91.0049 16.1758 90.1348 15.8682 89.5488 15.2529C88.9629 14.6318 88.6699 13.7412 88.6699 12.5811V6.17383H91.3506V11.9131C91.3506 12.6221 91.4766 13.1553 91.7285 13.5127C91.9805 13.8643 92.3818 14.04 92.9326 14.04C93.6826 14.04 94.2246 13.791 94.5586 13.293C94.8926 12.7891 95.0596 11.957 95.0596 10.7969V6.17383H97.7402V16H95.6836ZM109.351 16H106.67V10.2607C106.67 9.55176 106.55 9.02148 106.31 8.66992C106.075 8.3125 105.703 8.13379 105.193 8.13379C104.508 8.13379 104.01 8.38574 103.699 8.88965C103.389 9.39355 103.233 10.2227 103.233 11.377V16H100.553V6.17383H102.601L102.961 7.43066H103.11C103.374 6.97949 103.755 6.62793 104.253 6.37598C104.751 6.11816 105.322 5.98926 105.967 5.98926C107.438 5.98926 108.434 6.46973 108.955 7.43066H109.192C109.456 6.97363 109.843 6.61914 110.353 6.36719C110.868 6.11523 111.448 5.98926 112.093 5.98926C113.206 5.98926 114.047 6.27637 114.615 6.85059C115.189 7.41895 115.477 8.33301 115.477 9.59277V16H112.787V10.2607C112.787 9.55176 112.667 9.02148 112.427 8.66992C112.192 8.3125 111.82 8.13379 111.311 8.13379C110.654 8.13379 110.162 8.36816 109.834 8.83691C109.512 9.30566 109.351 10.0498 109.351 11.0693V16ZM125.048 11.0693C125.048 12.042 125.206 12.7773 125.522 13.2754C125.845 13.7734 126.366 14.0225 127.087 14.0225C127.802 14.0225 128.314 13.7764 128.625 13.2842C128.941 12.7861 129.1 12.0479 129.1 11.0693C129.1 10.0967 128.941 9.36719 128.625 8.88086C128.309 8.39453 127.79 8.15137 127.069 8.15137C126.354 8.15137 125.839 8.39453 125.522 8.88086C125.206 9.36133 125.048 10.0908 125.048 11.0693ZM131.842 11.0693C131.842 12.6689 131.42 13.9199 130.576 14.8223C129.732 15.7246 128.558 16.1758 127.052 16.1758C126.108 16.1758 125.276 15.9707 124.556 15.5605C123.835 15.1445 123.281 14.5498 122.895 13.7764C122.508 13.0029 122.314 12.1006 122.314 11.0693C122.314 9.46387 122.733 8.21582 123.571 7.3252C124.409 6.43457 125.587 5.98926 127.104 5.98926C128.048 5.98926 128.88 6.19434 129.601 6.60449C130.321 7.01465 130.875 7.60352 131.262 8.37109C131.648 9.13867 131.842 10.0381 131.842 11.0693ZM143.127 16H140.446V10.2607C140.446 9.55176 140.32 9.02148 140.068 8.66992C139.816 8.3125 139.415 8.13379 138.864 8.13379C138.114 8.13379 137.572 8.38574 137.238 8.88965C136.904 9.3877 136.737 10.2168 136.737 11.377V16H134.057V6.17383H136.104L136.465 7.43066H136.614C136.913 6.95605 137.323 6.59863 137.845 6.3584C138.372 6.1123 138.97 5.98926 139.638 5.98926C140.78 5.98926 141.647 6.2998 142.239 6.9209C142.831 7.53613 143.127 8.42676 143.127 9.59277V16ZM157.875 0.53125C153.059 0.53125 149.156 4.46875 149.156 9.25C149.156 14.0664 153.059 17.9688 157.875 17.9688C162.656 17.9688 166.594 14.0664 166.594 9.25C166.594 4.46875 162.656 0.53125 157.875 0.53125ZM161.391 13.3633C161.25 13.3633 161.145 13.3281 161.039 13.2578C158.824 11.9219 156.293 11.8867 153.762 12.3789C153.621 12.4141 153.445 12.4844 153.34 12.4844C152.988 12.4844 152.777 12.2031 152.777 11.9219C152.777 11.5703 152.988 11.3945 153.27 11.3242C156.152 10.6914 159.07 10.7617 161.602 12.2383C161.812 12.3789 161.918 12.5195 161.918 12.8359C161.918 13.1523 161.672 13.3633 161.391 13.3633ZM162.34 11.0781C162.164 11.0781 162.023 10.9727 161.918 10.9375C159.703 9.63672 156.434 9.10938 153.516 9.88281C153.34 9.91797 153.27 9.98828 153.094 9.98828C152.742 9.98828 152.426 9.67188 152.426 9.28516C152.426 8.93359 152.602 8.6875 152.953 8.58203C153.938 8.30078 154.957 8.08984 156.398 8.08984C158.684 8.08984 160.898 8.65234 162.621 9.70703C162.902 9.84766 163.043 10.0938 163.043 10.375C163.008 10.7617 162.727 11.0781 162.34 11.0781ZM163.43 8.40625C163.254 8.40625 163.148 8.33594 162.973 8.26562C160.477 6.75391 156.012 6.40234 153.094 7.21094C152.988 7.24609 152.812 7.31641 152.637 7.31641C152.18 7.31641 151.828 6.92969 151.828 6.47266C151.828 5.98047 152.145 5.73438 152.461 5.62891C153.691 5.27734 155.062 5.10156 156.574 5.10156C159.141 5.10156 161.848 5.62891 163.781 6.78906C164.062 6.92969 164.238 7.14062 164.238 7.5625C164.238 8.05469 163.852 8.40625 163.43 8.40625Z" fill="#36B37E"/>
</svg>
