<svg width="162" height="15" viewBox="0 0 162 15" fill="none" xmlns="http://www.w3.org/2000/svg">
<path d="M14.9404 14H11.8379L10.0977 7.25C10.0332 7.00977 9.92188 6.51465 9.76367 5.76465C9.61133 5.00879 9.52344 4.50195 9.5 4.24414C9.46484 4.56055 9.37695 5.07031 9.23633 5.77344C9.0957 6.4707 8.9873 6.96875 8.91113 7.26758L7.17969 14H4.08594L0.807617 1.15039H3.48828L5.13184 8.16406C5.41895 9.45898 5.62695 10.5811 5.75586 11.5303C5.79102 11.1963 5.87012 10.6807 5.99316 9.9834C6.12207 9.28027 6.24219 8.73535 6.35352 8.34863L8.22559 1.15039H10.8008L12.6729 8.34863C12.7549 8.6709 12.8574 9.16309 12.9805 9.8252C13.1035 10.4873 13.1973 11.0557 13.2617 11.5303C13.3203 11.0732 13.4141 10.5049 13.543 9.8252C13.6719 9.13965 13.7891 8.58594 13.8945 8.16406L15.5293 1.15039H18.21L14.9404 14ZM25.8564 14L25.3379 12.6641H25.2676C24.8164 13.2324 24.3506 13.6279 23.8701 13.8506C23.3955 14.0674 22.7744 14.1758 22.0068 14.1758C21.0635 14.1758 20.3193 13.9062 19.7744 13.3672C19.2354 12.8281 18.9658 12.0605 18.9658 11.0645C18.9658 10.0215 19.3291 9.25391 20.0557 8.76172C20.7881 8.26367 21.8896 7.98828 23.3604 7.93555L25.0654 7.88281V7.45215C25.0654 6.45605 24.5557 5.95801 23.5361 5.95801C22.751 5.95801 21.8281 6.19531 20.7676 6.66992L19.8799 4.85938C21.0107 4.26758 22.2646 3.97168 23.6416 3.97168C24.96 3.97168 25.9707 4.25879 26.6738 4.83301C27.377 5.40723 27.7285 6.28027 27.7285 7.45215V14H25.8564ZM25.0654 9.44727L24.0283 9.48242C23.249 9.50586 22.6689 9.64648 22.2881 9.9043C21.9072 10.1621 21.7168 10.5547 21.7168 11.082C21.7168 11.8379 22.1504 12.2158 23.0176 12.2158C23.6387 12.2158 24.1338 12.0371 24.5029 11.6797C24.8779 11.3223 25.0654 10.8477 25.0654 10.2559V9.44727ZM34.6367 12.04C35.1055 12.04 35.668 11.9375 36.3242 11.7324V13.7275C35.6562 14.0264 34.8359 14.1758 33.8633 14.1758C32.791 14.1758 32.0088 13.9062 31.5166 13.3672C31.0303 12.8223 30.7871 12.0078 30.7871 10.9238V6.18652H29.5039V5.05273L30.9805 4.15625L31.7539 2.08203H33.4678V4.17383H36.2188V6.18652H33.4678V10.9238C33.4678 11.3047 33.5732 11.5859 33.7842 11.7676C34.001 11.9492 34.2852 12.04 34.6367 12.04ZM42.3096 14.1758C39.251 14.1758 37.7217 12.4971 37.7217 9.13965C37.7217 7.46973 38.1377 6.19531 38.9697 5.31641C39.8018 4.43164 40.9941 3.98926 42.5469 3.98926C43.6836 3.98926 44.7031 4.21191 45.6055 4.65723L44.8145 6.73145C44.3926 6.56152 44 6.42383 43.6367 6.31836C43.2734 6.20703 42.9102 6.15137 42.5469 6.15137C41.1523 6.15137 40.4551 7.1416 40.4551 9.12207C40.4551 11.0439 41.1523 12.0049 42.5469 12.0049C43.0625 12.0049 43.54 11.9375 43.9795 11.8027C44.4189 11.6621 44.8584 11.4453 45.2979 11.1523V13.4463C44.8643 13.7217 44.4248 13.9121 43.9795 14.0176C43.54 14.123 42.9834 14.1758 42.3096 14.1758ZM56.6533 14H53.9727V8.26074C53.9727 6.84277 53.4453 6.13379 52.3906 6.13379C51.6406 6.13379 51.0986 6.38867 50.7646 6.89844C50.4307 7.4082 50.2637 8.23438 50.2637 9.37695V14H47.583V0.324219H50.2637V3.11035C50.2637 3.32715 50.2432 3.83691 50.2021 4.63965L50.1406 5.43066H50.2812C50.8789 4.46973 51.8281 3.98926 53.1289 3.98926C54.2832 3.98926 55.1592 4.2998 55.7568 4.9209C56.3545 5.54199 56.6533 6.43262 56.6533 7.59277V14ZM69.7402 14L66.6465 3.91895H66.5674C66.6787 5.96973 66.7344 7.33789 66.7344 8.02344V14H64.2998V1.15039H68.0088L71.0498 10.9766H71.1025L74.3281 1.15039H78.0371V14H75.4971V7.91797C75.4971 7.63086 75.5 7.2998 75.5059 6.9248C75.5176 6.5498 75.5586 5.55371 75.6289 3.93652H75.5498L72.2363 14H69.7402ZM83.2051 9.06934C83.2051 10.042 83.3633 10.7773 83.6797 11.2754C84.002 11.7734 84.5234 12.0225 85.2441 12.0225C85.959 12.0225 86.4717 11.7764 86.7822 11.2842C87.0986 10.7861 87.2568 10.0479 87.2568 9.06934C87.2568 8.09668 87.0986 7.36719 86.7822 6.88086C86.4658 6.39453 85.9473 6.15137 85.2266 6.15137C84.5117 6.15137 83.9961 6.39453 83.6797 6.88086C83.3633 7.36133 83.2051 8.09082 83.2051 9.06934ZM89.999 9.06934C89.999 10.6689 89.5771 11.9199 88.7334 12.8223C87.8896 13.7246 86.7148 14.1758 85.209 14.1758C84.2656 14.1758 83.4336 13.9707 82.7129 13.5605C81.9922 13.1445 81.4385 12.5498 81.0518 11.7764C80.665 11.0029 80.4717 10.1006 80.4717 9.06934C80.4717 7.46387 80.8906 6.21582 81.7285 5.3252C82.5664 4.43457 83.7441 3.98926 85.2617 3.98926C86.2051 3.98926 87.0371 4.19434 87.7578 4.60449C88.4785 5.01465 89.0322 5.60352 89.4189 6.37109C89.8057 7.13867 89.999 8.03809 89.999 9.06934ZM97.6982 3.98926C98.0615 3.98926 98.3633 4.01562 98.6035 4.06836L98.4014 6.58203C98.1846 6.52344 97.9209 6.49414 97.6104 6.49414C96.7549 6.49414 96.0869 6.71387 95.6064 7.15332C95.1318 7.59277 94.8945 8.20801 94.8945 8.99902V14H92.2139V4.17383H94.2441L94.6396 5.82617H94.7715C95.0762 5.27539 95.4863 4.83301 96.002 4.49902C96.5234 4.15918 97.0889 3.98926 97.6982 3.98926ZM104.457 5.89648C103.889 5.89648 103.443 6.07812 103.121 6.44141C102.799 6.79883 102.614 7.30859 102.567 7.9707H106.329C106.317 7.30859 106.145 6.79883 105.811 6.44141C105.477 6.07812 105.025 5.89648 104.457 5.89648ZM104.835 14.1758C103.253 14.1758 102.017 13.7393 101.126 12.8662C100.235 11.9932 99.79 10.7568 99.79 9.15723C99.79 7.51074 100.2 6.23926 101.021 5.34277C101.847 4.44043 102.986 3.98926 104.439 3.98926C105.828 3.98926 106.909 4.38477 107.683 5.17578C108.456 5.9668 108.843 7.05957 108.843 8.4541V9.75488H102.506C102.535 10.5166 102.761 11.1113 103.183 11.5391C103.604 11.9668 104.196 12.1807 104.958 12.1807C105.55 12.1807 106.109 12.1191 106.637 11.9961C107.164 11.873 107.715 11.6768 108.289 11.4072V13.4814C107.82 13.7158 107.319 13.8887 106.786 14C106.253 14.1172 105.603 14.1758 104.835 14.1758ZM117.834 9.06934C117.834 10.042 117.992 10.7773 118.309 11.2754C118.631 11.7734 119.152 12.0225 119.873 12.0225C120.588 12.0225 121.101 11.7764 121.411 11.2842C121.728 10.7861 121.886 10.0479 121.886 9.06934C121.886 8.09668 121.728 7.36719 121.411 6.88086C121.095 6.39453 120.576 6.15137 119.855 6.15137C119.141 6.15137 118.625 6.39453 118.309 6.88086C117.992 7.36133 117.834 8.09082 117.834 9.06934ZM124.628 9.06934C124.628 10.6689 124.206 11.9199 123.362 12.8223C122.519 13.7246 121.344 14.1758 119.838 14.1758C118.895 14.1758 118.062 13.9707 117.342 13.5605C116.621 13.1445 116.067 12.5498 115.681 11.7764C115.294 11.0029 115.101 10.1006 115.101 9.06934C115.101 7.46387 115.52 6.21582 116.357 5.3252C117.195 4.43457 118.373 3.98926 119.891 3.98926C120.834 3.98926 121.666 4.19434 122.387 4.60449C123.107 5.01465 123.661 5.60352 124.048 6.37109C124.435 7.13867 124.628 8.03809 124.628 9.06934ZM135.913 14H133.232V8.26074C133.232 7.55176 133.106 7.02148 132.854 6.66992C132.603 6.3125 132.201 6.13379 131.65 6.13379C130.9 6.13379 130.358 6.38574 130.024 6.88965C129.69 7.3877 129.523 8.2168 129.523 9.37695V14H126.843V4.17383H128.891L129.251 5.43066H129.4C129.699 4.95605 130.109 4.59863 130.631 4.3584C131.158 4.1123 131.756 3.98926 132.424 3.98926C133.566 3.98926 134.434 4.2998 135.025 4.9209C135.617 5.53613 135.913 6.42676 135.913 7.59277V14ZM161.243 2.64453C161.032 1.80078 160.364 1.13281 159.556 0.921875C158.044 0.5 152.067 0.5 152.067 0.5C152.067 0.5 146.056 0.5 144.544 0.921875C143.735 1.13281 143.067 1.80078 142.856 2.64453C142.435 4.12109 142.435 7.28516 142.435 7.28516C142.435 7.28516 142.435 10.4141 142.856 11.9258C143.067 12.7695 143.735 13.4023 144.544 13.6133C146.056 14 152.067 14 152.067 14C152.067 14 158.044 14 159.556 13.6133C160.364 13.4023 161.032 12.7695 161.243 11.9258C161.665 10.4141 161.665 7.28516 161.665 7.28516C161.665 7.28516 161.665 4.12109 161.243 2.64453ZM150.099 10.1328V4.4375L155.091 7.28516L150.099 10.1328Z" fill="#E95432"/>
</svg>
